<svg enable-background="new 0 0 484 403.8" viewBox="0 0 484 403.8" xmlns="http://www.w3.org/2000/svg" xmlns:xlink="http://www.w3.org/1999/xlink"><clipPath id="a"><path d="m1163.3 199.1h289v262h-289z"/></clipPath><linearGradient id="b" gradientTransform="matrix(25.3894 -27.2268 -83.2354 -77.6182 39036.3359 84167.5625)" gradientUnits="userSpaceOnUse" x1="952.2443" x2="952.3883" y1="746.8062" y2="746.0232"><stop offset="0" stop-color="#a4c2e5"/><stop offset="1" stop-color="#fff" stop-opacity="0"/></linearGradient><g transform="translate(-993.925 -111.528)"><g clip-path="url(#a)" fill="#d0e0f0" transform="translate(1169 267)"><circle cx="-3.7" cy="-51.9" r="2"/><circle cx="-3.7" cy="-9.9" r="2"/><circle cx="10.3" cy="-51.9" r="2"/><circle cx="10.3" cy="-9.9" r="2"/><circle cx="-3.7" cy="-65.9" r="2"/><circle cx="-3.7" cy="-23.9" r="2"/><circle cx="10.3" cy="-65.9" r="2"/><circle cx="10.3" cy="-23.9" r="2"/><circle cx="24.3" cy="-51.9" r="2"/><circle cx="24.3" cy="-9.9" r="2"/><circle cx="24.3" cy="-65.9" r="2"/><circle cx="24.3" cy="-23.9" r="2"/><circle cx="-3.7" cy="-37.9" r="2"/><circle cx="-3.7" cy="4.1" r="2"/><circle cx="10.3" cy="-37.9" r="2"/><circle cx="10.3" cy="4.1" r="2"/><circle cx="24.3" cy="-37.9" r="2"/><circle cx="24.3" cy="4.1" r="2"/><circle cx="38.3" cy="-51.9" r="2"/><circle cx="38.3" cy="-9.9" r="2"/><circle cx="38.3" cy="-65.9" r="2"/><circle cx="38.3" cy="-23.9" r="2"/><circle cx="38.3" cy="-37.9" r="2"/><circle cx="38.3" cy="4.1" r="2"/><circle cx="52.3" cy="-51.9" r="2"/><circle cx="52.3" cy="-9.9" r="2"/><circle cx="66.3" cy="-51.9" r="2"/><circle cx="66.3" cy="-9.9" r="2"/><circle cx="52.3" cy="-65.9" r="2"/><circle cx="52.3" cy="-23.9" r="2"/><circle cx="66.3" cy="-65.9" r="2"/><circle cx="66.3" cy="-23.9" r="2"/><circle cx="80.3" cy="-51.9" r="2"/><circle cx="80.3" cy="-9.9" r="2"/><circle cx="80.3" cy="-65.9" r="2"/><circle cx="80.3" cy="-23.9" r="2"/><circle cx="52.3" cy="-37.9" r="2"/><circle cx="52.3" cy="4.1" r="2"/><circle cx="66.3" cy="-37.9" r="2"/><circle cx="66.3" cy="4.1" r="2"/><circle cx="80.3" cy="-37.9" r="2"/><circle cx="80.3" cy="4.1" r="2"/><circle cx="94.3" cy="-51.9" r="2"/><circle cx="94.3" cy="-9.9" r="2"/><circle cx="94.3" cy="-65.9" r="2"/><circle cx="94.3" cy="-23.9" r="2"/><circle cx="94.3" cy="-37.9" r="2"/><circle cx="94.3" cy="4.1" r="2"/><circle cx="108.3" cy="-51.9" r="2"/><circle cx="108.3" cy="-9.9" r="2"/><circle cx="122.3" cy="-51.9" r="2"/><circle cx="122.3" cy="-9.9" r="2"/><circle cx="108.3" cy="-65.9" r="2"/><circle cx="108.3" cy="-23.9" r="2"/><circle cx="122.3" cy="-65.9" r="2"/><circle cx="122.3" cy="-23.9" r="2"/><circle cx="136.3" cy="-51.9" r="2"/><circle cx="136.3" cy="-9.9" r="2"/><circle cx="136.3" cy="-65.9" r="2"/><circle cx="136.3" cy="-23.9" r="2"/><circle cx="108.3" cy="-37.9" r="2"/><circle cx="108.3" cy="4.1" r="2"/><circle cx="122.3" cy="-37.9" r="2"/><circle cx="122.3" cy="4.1" r="2"/><circle cx="136.3" cy="-37.9" r="2"/><circle cx="136.3" cy="4.1" r="2"/><circle cx="150.3" cy="-51.9" r="2"/><circle cx="150.3" cy="-9.9" r="2"/><circle cx="150.3" cy="-65.9" r="2"/><circle cx="150.3" cy="-23.9" r="2"/><circle cx="150.3" cy="-37.9" r="2"/><circle cx="150.3" cy="4.1" r="2"/><circle cx="164.3" cy="-51.9" r="2"/><circle cx="164.3" cy="-9.9" r="2"/><circle cx="178.3" cy="-51.9" r="2"/><circle cx="178.3" cy="-9.9" r="2"/><circle cx="164.3" cy="-65.9" r="2"/><circle cx="164.3" cy="-23.9" r="2"/><circle cx="178.3" cy="-65.9" r="2"/><circle cx="178.3" cy="-23.9" r="2"/><circle cx="192.3" cy="-51.9" r="2"/><circle cx="192.3" cy="-9.9" r="2"/><circle cx="192.3" cy="-65.9" r="2"/><circle cx="192.3" cy="-23.9" r="2"/><circle cx="164.3" cy="-37.9" r="2"/><circle cx="164.3" cy="4.1" r="2"/><circle cx="178.3" cy="-37.9" r="2"/><circle cx="178.3" cy="4.1" r="2"/><circle cx="192.3" cy="-37.9" r="2"/><circle cx="192.3" cy="4.1" r="2"/><circle cx="206.3" cy="-51.9" r="2"/><circle cx="206.3" cy="-9.9" r="2"/><circle cx="206.3" cy="-65.9" r="2"/><circle cx="206.3" cy="-23.9" r="2"/><circle cx="206.3" cy="-37.9" r="2"/><circle cx="206.3" cy="4.1" r="2"/><circle cx="220.3" cy="-51.9" r="2"/><circle cx="220.3" cy="-9.9" r="2"/><circle cx="234.3" cy="-51.9" r="2"/><circle cx="234.3" cy="-9.9" r="2"/><circle cx="220.3" cy="-65.9" r="2"/><circle cx="220.3" cy="-23.9" r="2"/><circle cx="234.3" cy="-65.9" r="2"/><circle cx="234.3" cy="-23.9" r="2"/><circle cx="248.3" cy="-51.9" r="2"/><circle cx="248.3" cy="-9.9" r="2"/><circle cx="248.3" cy="-65.9" r="2"/><circle cx="248.3" cy="-23.9" r="2"/><circle cx="220.3" cy="-37.9" r="2"/><circle cx="220.3" cy="4.1" r="2"/><circle cx="234.3" cy="-37.9" r="2"/><circle cx="234.3" cy="4.1" r="2"/><circle cx="248.3" cy="-37.9" r="2"/><circle cx="248.3" cy="4.1" r="2"/><circle cx="262.3" cy="-51.9" r="2"/><circle cx="262.3" cy="-9.9" r="2"/><circle cx="262.3" cy="-65.9" r="2"/><circle cx="262.3" cy="-23.9" r="2"/><circle cx="262.3" cy="-37.9" r="2"/><circle cx="262.3" cy="4.1" r="2"/><circle cx="276.3" cy="-51.9" r="2"/><circle cx="276.3" cy="-9.9" r="2"/><circle cx="290.3" cy="-51.9" r="2"/><circle cx="290.3" cy="-9.9" r="2"/><circle cx="276.3" cy="-65.9" r="2"/><circle cx="276.3" cy="-23.9" r="2"/><circle cx="290.3" cy="-65.9" r="2"/><circle cx="290.3" cy="-23.9" r="2"/><circle cx="304.3" cy="-51.9" r="2"/><circle cx="304.3" cy="-9.9" r="2"/><circle cx="304.3" cy="-65.9" r="2"/><circle cx="304.3" cy="-23.9" r="2"/><circle cx="276.3" cy="-37.9" r="2"/><circle cx="276.3" cy="4.1" r="2"/><circle cx="290.3" cy="-37.9" r="2"/><circle cx="290.3" cy="4.1" r="2"/><circle cx="304.3" cy="-37.9" r="2"/><circle cx="304.3" cy="4.1" r="2"/><circle cx="318.3" cy="-51.9" r="2"/><circle cx="318.3" cy="-9.9" r="2"/><circle cx="318.3" cy="-65.9" r="2"/><circle cx="318.3" cy="-23.9" r="2"/><circle cx="318.3" cy="-37.9" r="2"/><circle cx="318.3" cy="4.1" r="2"/><circle cx="-3.7" cy="32.1" r="2"/><circle cx="-3.7" cy="74.1" r="2"/><circle cx="10.3" cy="32.1" r="2"/><circle cx="10.3" cy="74.1" r="2"/><circle cx="-3.7" cy="18.1" r="2"/><circle cx="-3.7" cy="60.1" r="2"/><circle cx="10.3" cy="18.1" r="2"/><circle cx="10.3" cy="60.1" r="2"/><circle cx="24.3" cy="32.1" r="2"/><circle cx="24.3" cy="74.1" r="2"/><circle cx="24.3" cy="18.1" r="2"/><circle cx="24.3" cy="60.1" r="2"/><circle cx="-3.7" cy="46.1" r="2"/><circle cx="-3.7" cy="88.1" r="2"/><circle cx="10.3" cy="46.1" r="2"/><circle cx="10.3" cy="88.1" r="2"/><circle cx="24.3" cy="46.1" r="2"/><circle cx="24.3" cy="88.1" r="2"/><circle cx="38.3" cy="32.1" r="2"/><circle cx="38.3" cy="74.1" r="2"/><circle cx="38.3" cy="18.1" r="2"/><circle cx="38.3" cy="60.1" r="2"/><circle cx="38.3" cy="46.1" r="2"/><circle cx="38.3" cy="88.1" r="2"/><circle cx="52.3" cy="32.1" r="2"/><circle cx="52.3" cy="74.1" r="2"/><circle cx="66.3" cy="32.1" r="2"/><circle cx="66.3" cy="74.1" r="2"/><circle cx="52.3" cy="18.1" r="2"/><circle cx="52.3" cy="60.1" r="2"/><circle cx="66.3" cy="18.1" r="2"/><circle cx="66.3" cy="60.1" r="2"/><circle cx="80.3" cy="32.1" r="2"/><circle cx="80.3" cy="74.1" r="2"/><circle cx="80.3" cy="18.1" r="2"/><circle cx="80.3" cy="60.1" r="2"/><circle cx="52.3" cy="46.1" r="2"/><circle cx="52.3" cy="88.1" r="2"/><circle cx="66.3" cy="46.1" r="2"/><circle cx="66.3" cy="88.1" r="2"/><circle cx="80.3" cy="46.1" r="2"/><circle cx="80.3" cy="88.1" r="2"/><circle cx="94.3" cy="32.1" r="2"/><circle cx="94.3" cy="74.1" r="2"/><circle cx="94.3" cy="18.1" r="2"/><circle cx="94.3" cy="60.1" r="2"/><circle cx="94.3" cy="46.1" r="2"/><circle cx="94.3" cy="88.1" r="2"/><circle cx="108.3" cy="32.1" r="2"/><circle cx="108.3" cy="74.1" r="2"/><circle cx="122.3" cy="32.1" r="2"/><circle cx="122.3" cy="74.1" r="2"/><circle cx="108.3" cy="18.1" r="2"/><circle cx="108.3" cy="60.1" r="2"/><circle cx="122.3" cy="18.1" r="2"/><circle cx="122.3" cy="60.1" r="2"/><circle cx="136.3" cy="32.1" r="2"/><circle cx="136.3" cy="74.1" r="2"/><circle cx="136.3" cy="18.1" r="2"/><circle cx="136.3" cy="60.1" r="2"/><circle cx="108.3" cy="46.1" r="2"/><circle cx="108.3" cy="88.1" r="2"/><circle cx="122.3" cy="46.1" r="2"/><circle cx="122.3" cy="88.1" r="2"/><circle cx="136.3" cy="46.1" r="2"/><circle cx="136.3" cy="88.1" r="2"/><circle cx="150.3" cy="32.1" r="2"/><circle cx="150.3" cy="74.1" r="2"/><circle cx="150.3" cy="18.1" r="2"/><circle cx="150.3" cy="60.1" r="2"/><circle cx="150.3" cy="46.1" r="2"/><circle cx="150.3" cy="88.1" r="2"/><circle cx="164.3" cy="32.1" r="2"/><circle cx="164.3" cy="74.1" r="2"/><circle cx="178.3" cy="32.1" r="2"/><circle cx="178.3" cy="74.1" r="2"/><circle cx="164.3" cy="18.1" r="2"/><circle cx="164.3" cy="60.1" r="2"/><circle cx="178.3" cy="18.1" r="2"/><circle cx="178.3" cy="60.1" r="2"/><circle cx="192.3" cy="32.1" r="2"/><circle cx="192.3" cy="74.1" r="2"/><circle cx="192.3" cy="18.1" r="2"/><circle cx="192.3" cy="60.1" r="2"/><circle cx="164.3" cy="46.1" r="2"/><circle cx="164.3" cy="88.1" r="2"/><circle cx="178.3" cy="46.1" r="2"/><circle cx="178.3" cy="88.1" r="2"/><circle cx="192.3" cy="46.1" r="2"/><circle cx="192.3" cy="88.1" r="2"/><circle cx="206.3" cy="32.1" r="2"/><circle cx="206.3" cy="74.1" r="2"/><circle cx="206.3" cy="18.1" r="2"/><circle cx="206.3" cy="60.1" r="2"/><circle cx="206.3" cy="46.1" r="2"/><circle cx="206.3" cy="88.1" r="2"/><circle cx="220.3" cy="32.1" r="2"/><circle cx="220.3" cy="74.1" r="2"/><circle cx="234.3" cy="32.1" r="2"/><circle cx="234.3" cy="74.1" r="2"/><circle cx="220.3" cy="18.1" r="2"/><circle cx="220.3" cy="60.1" r="2"/><circle cx="234.3" cy="18.1" r="2"/><circle cx="234.3" cy="60.1" r="2"/><circle cx="248.3" cy="32.1" r="2"/><circle cx="248.3" cy="74.1" r="2"/><circle cx="248.3" cy="18.1" r="2"/><circle cx="248.3" cy="60.1" r="2"/><circle cx="220.3" cy="46.1" r="2"/><circle cx="220.3" cy="88.1" r="2"/><circle cx="234.3" cy="46.1" r="2"/><circle cx="234.3" cy="88.1" r="2"/><circle cx="248.3" cy="46.1" r="2"/><circle cx="248.3" cy="88.1" r="2"/><circle cx="262.3" cy="32.1" r="2"/><circle cx="262.3" cy="74.1" r="2"/><circle cx="262.3" cy="18.1" r="2"/><circle cx="262.3" cy="60.1" r="2"/><circle cx="262.3" cy="46.1" r="2"/><circle cx="262.3" cy="88.1" r="2"/><circle cx="276.3" cy="32.1" r="2"/><circle cx="276.3" cy="74.1" r="2"/><circle cx="290.3" cy="32.1" r="2"/><circle cx="290.3" cy="74.1" r="2"/><circle cx="276.3" cy="18.1" r="2"/><circle cx="276.3" cy="60.1" r="2"/><circle cx="290.3" cy="18.1" r="2"/><circle cx="290.3" cy="60.1" r="2"/><circle cx="304.3" cy="32.1" r="2"/><circle cx="304.3" cy="74.1" r="2"/><circle cx="304.3" cy="18.1" r="2"/><circle cx="304.3" cy="60.1" r="2"/><circle cx="276.3" cy="46.1" r="2"/><circle cx="276.3" cy="88.1" r="2"/><circle cx="290.3" cy="46.1" r="2"/><circle cx="290.3" cy="88.1" r="2"/><circle cx="304.3" cy="46.1" r="2"/><circle cx="304.3" cy="88.1" r="2"/><circle cx="318.3" cy="32.1" r="2"/><circle cx="318.3" cy="74.1" r="2"/><circle cx="318.3" cy="18.1" r="2"/><circle cx="318.3" cy="60.1" r="2"/><circle cx="318.3" cy="46.1" r="2"/><circle cx="318.3" cy="88.1" r="2"/><circle cx="-3.7" cy="116.1" r="2"/><circle cx="-3.7" cy="158.1" r="2"/><circle cx="10.3" cy="116.1" r="2"/><circle cx="10.3" cy="158.1" r="2"/><circle cx="-3.7" cy="102.1" r="2"/><circle cx="-3.7" cy="144.1" r="2"/><circle cx="10.3" cy="102.1" r="2"/><circle cx="10.3" cy="144.1" r="2"/><circle cx="24.3" cy="116.1" r="2"/><circle cx="24.3" cy="158.1" r="2"/><circle cx="24.3" cy="102.1" r="2"/><circle cx="24.3" cy="144.1" r="2"/><circle cx="-3.7" cy="130.1" r="2"/><circle cx="-3.7" cy="172.1" r="2"/><circle cx="10.3" cy="130.1" r="2"/><circle cx="10.3" cy="172.1" r="2"/><circle cx="24.3" cy="130.1" r="2"/><circle cx="24.3" cy="172.1" r="2"/><circle cx="38.3" cy="116.1" r="2"/><circle cx="38.3" cy="158.1" r="2"/><circle cx="38.3" cy="102.1" r="2"/><circle cx="38.3" cy="144.1" r="2"/><circle cx="38.3" cy="130.1" r="2"/><circle cx="38.3" cy="172.1" r="2"/><circle cx="52.3" cy="116.1" r="2"/><circle cx="52.3" cy="158.1" r="2"/><circle cx="66.3" cy="116.1" r="2"/><circle cx="66.3" cy="158.1" r="2"/><circle cx="52.3" cy="102.1" r="2"/><circle cx="52.3" cy="144.1" r="2"/><circle cx="66.3" cy="102.1" r="2"/><circle cx="66.3" cy="144.1" r="2"/><circle cx="80.3" cy="116.1" r="2"/><circle cx="80.3" cy="158.1" r="2"/><circle cx="80.3" cy="102.1" r="2"/><circle cx="80.3" cy="144.1" r="2"/><circle cx="52.3" cy="130.1" r="2"/><circle cx="52.3" cy="172.1" r="2"/><circle cx="66.3" cy="130.1" r="2"/><circle cx="66.3" cy="172.1" r="2"/><circle cx="80.3" cy="130.1" r="2"/><circle cx="80.3" cy="172.1" r="2"/><circle cx="94.3" cy="116.1" r="2"/><circle cx="94.3" cy="158.1" r="2"/><circle cx="94.3" cy="102.1" r="2"/><circle cx="94.3" cy="144.1" r="2"/><circle cx="94.3" cy="130.1" r="2"/><circle cx="94.3" cy="172.1" r="2"/><circle cx="108.3" cy="116.1" r="2"/><circle cx="108.3" cy="158.1" r="2"/><circle cx="122.3" cy="116.1" r="2"/><circle cx="122.3" cy="158.1" r="2"/><circle cx="108.3" cy="102.1" r="2"/><circle cx="108.3" cy="144.1" r="2"/><circle cx="122.3" cy="102.1" r="2"/><circle cx="122.3" cy="144.1" r="2"/><circle cx="136.3" cy="116.1" r="2"/><circle cx="136.3" cy="158.1" r="2"/><circle cx="136.3" cy="102.1" r="2"/><circle cx="136.3" cy="144.1" r="2"/><circle cx="108.3" cy="130.1" r="2"/><circle cx="108.3" cy="172.1" r="2"/><circle cx="122.3" cy="130.1" r="2"/><circle cx="122.3" cy="172.1" r="2"/><circle cx="136.3" cy="130.1" r="2"/><circle cx="136.3" cy="172.1" r="2"/><circle cx="150.3" cy="116.1" r="2"/><circle cx="150.3" cy="158.1" r="2"/><circle cx="150.3" cy="102.1" r="2"/><circle cx="150.3" cy="144.1" r="2"/><circle cx="150.3" cy="130.1" r="2"/><circle cx="150.3" cy="172.1" r="2"/><circle cx="164.3" cy="116.1" r="2"/><circle cx="164.3" cy="158.1" r="2"/><circle cx="178.3" cy="116.1" r="2"/><circle cx="178.3" cy="158.1" r="2"/><circle cx="164.3" cy="102.1" r="2"/><circle cx="164.3" cy="144.1" r="2"/><circle cx="178.3" cy="102.1" r="2"/><circle cx="178.3" cy="144.1" r="2"/><circle cx="192.3" cy="116.1" r="2"/><circle cx="192.3" cy="158.1" r="2"/><circle cx="192.3" cy="102.1" r="2"/><circle cx="192.3" cy="144.1" r="2"/><circle cx="164.3" cy="130.1" r="2"/><circle cx="164.3" cy="172.1" r="2"/><circle cx="178.3" cy="130.1" r="2"/><circle cx="178.3" cy="172.1" r="2"/><circle cx="192.3" cy="130.1" r="2"/><circle cx="192.3" cy="172.1" r="2"/><circle cx="206.3" cy="116.1" r="2"/><circle cx="206.3" cy="158.1" r="2"/><circle cx="206.3" cy="102.1" r="2"/><circle cx="206.3" cy="144.1" r="2"/><circle cx="206.3" cy="130.1" r="2"/><circle cx="206.3" cy="172.1" r="2"/><circle cx="220.3" cy="116.1" r="2"/><circle cx="220.3" cy="158.1" r="2"/><circle cx="234.3" cy="116.1" r="2"/><circle cx="234.3" cy="158.1" r="2"/><circle cx="220.3" cy="102.1" r="2"/><circle cx="220.3" cy="144.1" r="2"/><circle cx="234.3" cy="102.1" r="2"/><circle cx="234.3" cy="144.1" r="2"/><circle cx="248.3" cy="116.1" r="2"/><circle cx="248.3" cy="158.1" r="2"/><circle cx="248.3" cy="102.1" r="2"/><circle cx="248.3" cy="144.1" r="2"/><circle cx="220.3" cy="130.1" r="2"/><circle cx="220.3" cy="172.1" r="2"/><circle cx="234.3" cy="130.1" r="2"/><circle cx="234.3" cy="172.1" r="2"/><circle cx="248.3" cy="130.1" r="2"/><circle cx="248.3" cy="172.1" r="2"/><circle cx="262.3" cy="116.1" r="2"/><circle cx="262.3" cy="158.1" r="2"/><circle cx="262.3" cy="102.1" r="2"/><circle cx="262.3" cy="144.1" r="2"/><circle cx="262.3" cy="130.1" r="2"/><circle cx="262.3" cy="172.1" r="2"/><circle cx="276.3" cy="116.1" r="2"/><circle cx="276.3" cy="158.1" r="2"/><circle cx="290.3" cy="116.1" r="2"/><circle cx="290.3" cy="158.1" r="2"/><circle cx="276.3" cy="102.1" r="2"/><circle cx="276.3" cy="144.1" r="2"/><circle cx="290.3" cy="102.1" r="2"/><circle cx="290.3" cy="144.1" r="2"/><circle cx="304.3" cy="116.1" r="2"/><circle cx="304.3" cy="158.1" r="2"/><circle cx="304.3" cy="102.1" r="2"/><circle cx="304.3" cy="144.1" r="2"/><circle cx="276.3" cy="130.1" r="2"/><circle cx="276.3" cy="172.1" r="2"/><circle cx="290.3" cy="130.1" r="2"/><circle cx="290.3" cy="172.1" r="2"/><circle cx="304.3" cy="130.1" r="2"/><circle cx="304.3" cy="172.1" r="2"/><circle cx="318.3" cy="116.1" r="2"/><circle cx="318.3" cy="158.1" r="2"/><circle cx="318.3" cy="102.1" r="2"/><circle cx="318.3" cy="144.1" r="2"/><circle cx="318.3" cy="130.1" r="2"/><circle cx="318.3" cy="172.1" r="2"/><circle cx="-3.7" cy="200.1" r="2"/><circle cx="-3.7" cy="242.1" r="2"/><circle cx="10.3" cy="200.1" r="2"/><circle cx="10.3" cy="242.1" r="2"/><circle cx="-3.7" cy="186.1" r="2"/><circle cx="-3.7" cy="228.1" r="2"/><circle cx="10.3" cy="186.1" r="2"/><circle cx="10.3" cy="228.1" r="2"/><circle cx="24.3" cy="200.1" r="2"/><circle cx="24.3" cy="242.1" r="2"/><circle cx="24.3" cy="186.1" r="2"/><circle cx="24.3" cy="228.1" r="2"/><circle cx="-3.7" cy="214.1" r="2"/><circle cx="-3.7" cy="256.1" r="2"/><circle cx="10.3" cy="214.1" r="2"/><circle cx="10.3" cy="256.1" r="2"/><circle cx="24.3" cy="214.1" r="2"/><circle cx="24.3" cy="256.1" r="2"/><circle cx="38.3" cy="200.1" r="2"/><circle cx="38.3" cy="242.1" r="2"/><circle cx="38.3" cy="186.1" r="2"/><circle cx="38.3" cy="228.1" r="2"/><circle cx="38.3" cy="214.1" r="2"/><circle cx="38.3" cy="256.1" r="2"/><circle cx="52.3" cy="200.1" r="2"/><circle cx="52.3" cy="242.1" r="2"/><circle cx="66.3" cy="200.1" r="2"/><circle cx="66.3" cy="242.1" r="2"/><circle cx="52.3" cy="186.1" r="2"/><circle cx="52.3" cy="228.1" r="2"/><circle cx="66.3" cy="186.1" r="2"/><circle cx="66.3" cy="228.1" r="2"/><circle cx="80.3" cy="200.1" r="2"/><circle cx="80.3" cy="242.1" r="2"/><circle cx="80.3" cy="186.1" r="2"/><circle cx="80.3" cy="228.1" r="2"/><circle cx="52.3" cy="214.1" r="2"/><circle cx="52.3" cy="256.1" r="2"/><circle cx="66.3" cy="214.1" r="2"/><circle cx="66.3" cy="256.1" r="2"/><circle cx="80.3" cy="214.1" r="2"/><circle cx="80.3" cy="256.1" r="2"/><circle cx="94.3" cy="200.1" r="2"/><circle cx="94.3" cy="242.1" r="2"/><circle cx="94.3" cy="186.1" r="2"/><circle cx="94.3" cy="228.1" r="2"/><circle cx="94.3" cy="214.1" r="2"/><circle cx="94.3" cy="256.1" r="2"/><circle cx="108.3" cy="200.1" r="2"/><circle cx="108.3" cy="242.1" r="2"/><circle cx="122.3" cy="200.1" r="2"/><circle cx="122.3" cy="242.1" r="2"/><circle cx="108.3" cy="186.1" r="2"/><circle cx="108.3" cy="228.1" r="2"/><circle cx="122.3" cy="186.1" r="2"/><circle cx="122.3" cy="228.1" r="2"/><circle cx="136.3" cy="200.1" r="2"/><circle cx="136.3" cy="242.1" r="2"/><circle cx="136.3" cy="186.1" r="2"/><circle cx="136.3" cy="228.1" r="2"/><circle cx="108.3" cy="214.1" r="2"/><circle cx="108.3" cy="256.1" r="2"/><circle cx="122.3" cy="214.1" r="2"/><circle cx="122.3" cy="256.1" r="2"/><circle cx="136.3" cy="214.1" r="2"/><circle cx="136.3" cy="256.1" r="2"/><circle cx="150.3" cy="200.1" r="2"/><circle cx="150.3" cy="242.1" r="2"/><circle cx="150.3" cy="186.1" r="2"/><circle cx="150.3" cy="228.1" r="2"/><circle cx="150.3" cy="214.1" r="2"/><circle cx="150.3" cy="256.1" r="2"/><circle cx="164.3" cy="200.1" r="2"/><circle cx="164.3" cy="242.1" r="2"/><circle cx="178.3" cy="200.1" r="2"/><circle cx="178.3" cy="242.1" r="2"/><circle cx="164.3" cy="186.1" r="2"/><circle cx="164.3" cy="228.1" r="2"/><circle cx="178.3" cy="186.1" r="2"/><circle cx="178.3" cy="228.1" r="2"/><circle cx="192.3" cy="200.1" r="2"/><circle cx="192.3" cy="242.1" r="2"/><circle cx="192.3" cy="186.1" r="2"/><circle cx="192.3" cy="228.1" r="2"/><circle cx="164.3" cy="214.1" r="2"/><circle cx="164.3" cy="256.1" r="2"/><circle cx="178.3" cy="214.1" r="2"/><circle cx="178.3" cy="256.1" r="2"/><circle cx="192.3" cy="214.1" r="2"/><circle cx="192.3" cy="256.1" r="2"/><circle cx="206.3" cy="200.1" r="2"/><circle cx="206.3" cy="242.1" r="2"/><circle cx="206.3" cy="186.1" r="2"/><circle cx="206.3" cy="228.1" r="2"/><circle cx="206.3" cy="214.1" r="2"/><circle cx="206.3" cy="256.1" r="2"/><circle cx="220.3" cy="200.1" r="2"/><circle cx="220.3" cy="242.1" r="2"/><circle cx="234.3" cy="200.1" r="2"/><circle cx="234.3" cy="242.1" r="2"/><circle cx="220.3" cy="186.1" r="2"/><circle cx="220.3" cy="228.1" r="2"/><circle cx="234.3" cy="186.1" r="2"/><circle cx="234.3" cy="228.1" r="2"/><circle cx="248.3" cy="200.1" r="2"/><circle cx="248.3" cy="242.1" r="2"/><circle cx="248.3" cy="186.1" r="2"/><circle cx="248.3" cy="228.1" r="2"/><circle cx="220.3" cy="214.1" r="2"/><circle cx="220.3" cy="256.1" r="2"/><circle cx="234.3" cy="214.1" r="2"/><circle cx="234.3" cy="256.1" r="2"/><circle cx="248.3" cy="214.1" r="2"/><circle cx="248.3" cy="256.1" r="2"/><circle cx="262.3" cy="200.1" r="2"/><circle cx="262.3" cy="242.1" r="2"/><circle cx="262.3" cy="186.1" r="2"/><circle cx="262.3" cy="228.1" r="2"/><circle cx="262.3" cy="214.1" r="2"/><circle cx="262.3" cy="256.1" r="2"/><circle cx="276.3" cy="200.1" r="2"/><circle cx="276.3" cy="242.1" r="2"/><circle cx="290.3" cy="200.1" r="2"/><circle cx="290.3" cy="242.1" r="2"/><circle cx="276.3" cy="186.1" r="2"/><circle cx="276.3" cy="228.1" r="2"/><circle cx="290.3" cy="186.1" r="2"/><circle cx="290.3" cy="228.1" r="2"/><circle cx="304.3" cy="200.1" r="2"/><circle cx="304.3" cy="242.1" r="2"/><circle cx="304.3" cy="186.1" r="2"/><circle cx="304.3" cy="228.1" r="2"/><circle cx="276.3" cy="214.1" r="2"/><circle cx="276.3" cy="256.1" r="2"/><circle cx="290.3" cy="214.1" r="2"/><circle cx="290.3" cy="256.1" r="2"/><circle cx="304.3" cy="214.1" r="2"/><circle cx="304.3" cy="256.1" r="2"/><circle cx="318.3" cy="200.1" r="2"/><circle cx="318.3" cy="242.1" r="2"/><circle cx="318.3" cy="186.1" r="2"/><circle cx="318.3" cy="228.1" r="2"/><circle cx="318.3" cy="214.1" r="2"/><circle cx="318.3" cy="256.1" r="2"/></g><path d="m1218.8 466c71-13.5 92.3-63.3 125.6-95.3s63.6-10.4 108.8-67.8-6.8-212.6-203.7-172.8-210.4 166.9-193.6 237.3 91.9 112 162.9 98.6z" fill="#e1ecf7"/><path d="m1045.1 288.7 25.4-27.2 83.2 77.6-25.4 27.2z" fill="url(#b)"/><path d="m1079.1 277.4c0 10.6-8.6 19.1-19.1 19.1s-19.1-8.6-19.1-19.1 8.6-19.1 19.1-19.1c10.6 0 19.1 8.5 19.1 19.1z" fill="#79a1d0"/><path d="m1057.9 287 13.8-13.8c.5-.6.5-1.5 0-2.1l-2.1-1.1c-.5-.5-.6-.5-1.1 0l-11.7 11.7-5.3-5.3c-.6-.5-1.5-.5-2.1 0l-2.1 1.1c-.5.6-.5 1.5 0 2.1l8.5 7.4c.6.5 1.4.5 2.1 0z" fill="#fff"/><g transform="translate(1262.802 192.99)"><path d="m11.4 108.2c-1.7 0-3-1.3-3-3v-144h206.7v143.9c0 1.7-1.3 3-3 3zm-3-147v-13.2c0-1.7 1.3-3 3-3h200.7c1.7 0 3 1.3 3 3v13.2z" fill="#d0e0f0"/><path d="m-2.7-67.9h202c1.7 0 3 1.3 3 3v13.2h-208v-13.2c0-1.7 1.4-3 3-3z" fill="#185a6a"/><path d="m-5.7-51.7h208v142.7c0 1.7-1.3 3-3 3h-202c-1.7 0-3-1.3-3-3v-142.7z" fill="#fff"/><path d="m53.9-43h137.5c.6 0 1 .4 1 1v36.6c0 .6-.4 1-1 1h-137.5c-.6 0-1-.4-1-1v-36.6c0-.6.4-1 1-1z" fill="#e1ecf7"/><path d="m53.9 6.8h137.5c.6 0 1 .4 1 1v72.7c0 .6-.4 1-1 1h-137.5c-.6 0-1-.4-1-1v-72.7c0-.6.4-1 1-1z" fill="#e1ecf7"/><g fill="#fff"><ellipse cx="6.2" cy="-59.2" rx="1.9" ry="2.5"/><ellipse cx="14.9" cy="-59.2" rx="1.9" ry="2.5"/><ellipse cx="23.6" cy="-59.2" rx="1.9" ry="2.5"/></g><path d="m6.5-43h35.4c.6 0 1 .4 1 1v122.5c0 .6-.4 1-1 1h-35.4c-.6 0-1-.4-1-1v-122.5c0-.6.5-1 1-1z" fill="#e1ecf7"/></g><path d="m994.1 391.5h370l-4.6 18.7h-365.4z" fill="#79a1d0"/><g transform="translate(1078.478 278.497)"><path d="m281.8 108h-281l48.1-165.6h281z" fill="#fff"/><path d="m52.7-52.6-45.3 155.6h270.6l45.2-155.6zm-7.5-10h291.4l-51.1 175.6h-291.4z" fill="#215a9c"/></g><g fill="none"><path d="m1180.3 242.7h63.5" stroke="#e9d047" stroke-linecap="round" stroke-width="3"/><path d="m1140.5 242.7h24.9" stroke="#215a9c" stroke-linecap="round" stroke-width="3"/><path d="m1125.5 295h24.9" stroke="#215a9c" stroke-linecap="round" stroke-width="3"/><path d="m1135.5 260.1h24.9" stroke="#215a9c" stroke-linecap="round" stroke-width="3"/><path d="m1121.8 312.4h24.9" stroke="#215a9c" stroke-linecap="round" stroke-width="3"/><path d="m1130.5 277.6h24.9" stroke="#215a9c" stroke-linecap="round" stroke-width="3"/><path d="m1209 347.3h34.9" stroke="#e9d047" stroke-linecap="round" stroke-width="3"/><path d="m1304.8 258.9h56" stroke="#e9d047" stroke-linecap="round" stroke-width="3"/><path d="m1293.6 329.9h42.3" stroke="#e9d047" stroke-linecap="round" stroke-width="3"/><path d="m1257.5 242.7h63.5" stroke="#79a1d0" stroke-linecap="round" stroke-width="3"/><path d="m1336 242.7h36.1" stroke="#79a1d0" stroke-linecap="round" stroke-width="3"/><path d="m1172.8 276.3h149.4" stroke="#79a1d0" stroke-linecap="round" stroke-width="3"/><path d="m1150.4 347.3h49.8" stroke="#79a1d0" stroke-linecap="round" stroke-width="3"/><path d="m1251.3 347.3h67.2" stroke="#79a1d0" stroke-linecap="round" stroke-width="3"/><path d="m1187.4 258.9h101.2" stroke="#79a1d0" stroke-linecap="round" stroke-width="3"/><path d="m1159.1 329.9h125.8" stroke="#79a1d0" stroke-linecap="round" stroke-width="3"/><path d="m1163.5 311.2h125.8" stroke="#e9d047" stroke-linecap="round" stroke-width="3"/><path d="m1169.5 293.7h166.5" stroke="#79a1d0" stroke-linecap="round" stroke-width="3"/></g><path d="m1103.7 391.5h56v5h-56z" fill="#fff"/><path d="m1212.8 437.8-64.5 64.5" fill="none" stroke="#aac3c8" stroke-dasharray="7 7" stroke-width="2"/><path d="m1175 450.8-64.5 64.5" fill="none" stroke="#aac3c8" stroke-width="2"/><path d="m1292.7 309.1c0 31.1-25.2 56.4-56.4 56.4s-56.4-25.2-56.4-56.4c0-31.1 25.2-56.4 56.4-56.4 31.1.1 56.3 25.3 56.4 56.4z" fill="#fff"/><path d="m1285.7 309.1c0 27.3-22.1 49.4-49.4 49.4s-49.4-22.1-49.4-49.4 22.1-49.4 49.4-49.4c27.3.1 49.3 22.1 49.4 49.4z" fill="#d0e0f0"/><path d="m1274.2 308.4c0 20.7-16.8 37.4-37.4 37.4-20.7 0-37.4-16.8-37.4-37.4 0-20.7 16.8-37.4 37.4-37.4s37.3 16.7 37.4 37.4z" fill="#79a1d0"/><path d="m1262.2 308.5c0 14.1-11.4 25.5-25.5 25.5s-25.5-11.4-25.5-25.5 11.4-25.5 25.5-25.5 25.4 11.4 25.5 25.5z" fill="#215a9c"/><path d="m1236.6 292.9c1.8 0 3.2 1.4 3.2 3.2s-1.4 3.2-3.2 3.2-3.2-1.4-3.2-3.2c0-1.8 1.4-3.2 3.2-3.2zm14.4 11.2h-9.6v20.8h-3.2v-9.6h-3.2v9.6h-3.2v-20.8h-9.6v-3.2h28.8z" fill="#fff"/><ellipse cx="1175.6" cy="148.3" fill="none" rx="37.2" ry="36.7"/><ellipse cx="1175.6" cy="148.3" fill="none" rx="36.2" ry="35.7" stroke="#e9d047" stroke-dasharray="7" stroke-width="2"/></g></svg>