<svg enable-background="new 0 0 437.7 393.9" viewBox="0 0 437.7 393.9" xmlns="http://www.w3.org/2000/svg" xmlns:xlink="http://www.w3.org/1999/xlink"><linearGradient id="a" gradientTransform="matrix(397.9833 -168.9593 -134.6715 -317.2187 -130501.4062 614029.5)" gradientUnits="userSpaceOnUse" x1="834.2532" x2="834.3712" y1="1487.9182" y2="1487.1602"><stop offset="0" stop-color="#ebf4fb"/><stop offset="1" stop-color="#fff"/></linearGradient><g transform="translate(-919.036 -894.226)"><path d="m1184.7 894.3c-72.8 3.1-97.4 54.4-133 84.1s-65.2.9-114.3 56.6-5.3 234.6 196.8 223.3 223.2-148.8 210.1-228.9c-13-80.1-86.8-138.2-159.6-135.1z" fill="url(#a)"/><path d="m944.7 1019.7h49.3c.6 0 1 .4 1 1v17.4c0 .6-.4 1-1 1h-49.3c-.6 0-1-.4-1-1v-17.4c0-.5.5-1 1-1z" fill="#e1ecf7"/><path d="m1077.8 1076.3h40.8c.6 0 1 .4 1 1v52.4c0 .6-.4 1-1 1h-40.8c-.6 0-1-.4-1-1v-52.4c0-.6.4-1 1-1z" fill="#e1ecf7"/><path d="m1024.8 1031.2c-1.7 0-3-1.3-3-3v-75.1c0-1.7 1.3-3 3-3h80c1.7 0 3 1.3 3 3v75.1c0 1.7-1.3 3-3 3z" fill="#e1ecf7"/><ellipse cx="1287.4" cy="929.4" fill="none" rx="34.8" ry="34.3"/><ellipse cx="1287.4" cy="929.4" fill="none" rx="33.8" ry="33.3" stroke="#e9d047" stroke-dasharray="7" stroke-width="2"/><path d="m1165.6 1208.5-66.2 66.2" fill="none" stroke="#e9d047" stroke-width="2"/><path d="m1126.8 1221.9-66.2 66.2" fill="none" stroke="#e9d047" stroke-width="2"/><path d="m938.7 1013.7h49.3c.6 0 1 .4 1 1v17.4c0 .6-.4 1-1 1h-49.3c-.6 0-1-.4-1-1v-17.4c0-.5.5-1 1-1z" fill="#fff"/><path d="m951.4 1021.7h25.1v3.4h-25.1z" fill="#185a6a"/><path d="m996 1041.1h-5.3l2.8 6.7c.2.5 0 1-.5 1.2l-2.4 1.1c-.4.2-1 0-1.1-.5l-2.6-6.4-4.3 4.4c-.3.3-.9.3-1.2 0-.2-.2-.3-.4-.3-.6v-21.3c0-.5.4-.9.9-.9.2 0 .5.1.6.3l14.1 14.5c.4.4.3.9 0 1.3-.3.1-.5.2-.7.2z" fill="#79a1d0"/><path d="m1072.8 1078.9h40.8c.6 0 1 .4 1 1v44.8c0 .6-.4 1-1 1h-40.8c-.6 0-1-.4-1-1v-44.8c0-.5.4-1 1-1z" fill="#fff"/><path d="m1079.4 1090h24v3h-24z" fill="#79a1d0"/><path d="m1079.4 1111h23v3h-23z" fill="#79a1d0"/><path d="m1079.4 1100h26v3h-26z" fill="#215a9c"/><path d="m1072.8 1060.9h58.3c.6 0 1 .4 1 1v16.7c0 .6-.4 1-1 1h-58.3c-.6 0-1-.4-1-1v-16.7c0-.6.4-1 1-1z" fill="#d0e0f0"/><path d="m1080 1068.9h35.5v3h-35.5z" fill="#215a9c"/><path d="m1138.1 1085.9h-5.3l2.8 6.7c.2.5 0 1-.5 1.2l-2.4 1.1c-.4.2-1 0-1.1-.5l-2.6-6.4-4.3 4.4c-.3.3-.9.3-1.2 0-.2-.2-.3-.4-.3-.6v-21.3c0-.5.4-.9.9-.9.2 0 .5.1.6.3l14.1 14.5c.4.4.3.9 0 1.3-.3.1-.5.2-.7.2z" fill="#185a6a"/><path d="m948.3 1063.6h79c1.7 0 3 1.3 3 3v47c0 1.7-1.3 3-3 3h-79c-1.7 0-3-1.3-3-3v-47c0-1.7 1.3-3 3-3z" fill="#e1ecf7"/><path d="m941.3 1056.3h79c1.7 0 3 1.3 3 3v47c0 1.7-1.3 3-3 3h-79c-1.7 0-3-1.3-3-3v-47c0-1.7 1.3-3 3-3z" fill="#fff"/><path d="m977.8 1091.8h16v8h-16z" fill="#185a6a"/><path d="m1000.8 1091.8h16v8h-16z" fill="#185a6a"/><path d="m977.8 1066.8h36v3h-36z" fill="#185a6a"/><path d="m977.8 1075.8h20v3h-20z" fill="#185a6a"/><path d="m945.8 1083.8 13-21 13 21z" fill="#e9d047"/><path d="m957.8 1069.8h2v6h-2z" fill="#185a6a"/><path d="m957.8 1078.8h2v2h-2z" fill="#185a6a"/><path d="m1134.8 943.6h92.5v91.5h-92.5z" fill="#fff"/><path d="m1134.8 943.6h92.5v16.7h-92.5z" fill="#d0e0f0"/><path d="m1134.8 1001.6h92.5v17.7h-92.5z" fill="#d0e0f0"/><path d="m1134.8 1018.4h92.5v16.7h-92.5z" fill="#d0e0f0"/><path d="m1145.6 971.1h37.4v3h-37.4z" fill="#185a6a"/><path d="m1134.8 1017.1h92.5v3h-92.5z" fill="#79a1d0"/><path d="m1145.6 980.7h26.6v3h-26.6z" fill="#185a6a"/><path d="m1145.6 990.3h29.5v3h-29.5z" fill="#185a6a"/><path d="m1017.8 942.1h80c1.7 0 3 1.3 3 3v18.7h-86v-18.7c0-1.6 1.3-3 3-3z" fill="#215a9c"/><path d="m1014.8 956.9h86v64.3c0 1.7-1.3 3-3 3h-80c-1.7 0-3-1.3-3-3z" fill="#fff"/><path d="m1060.6 1025.3v-69.5h3.4v69.5z" fill="#185a6a"/><path d="m1052.9 1025.3v-69.5h3.4v69.5z" fill="#185a6a"/><path d="m1061.7 986.6h12.5v2.3h-12.5z" fill="#185a6a"/><path d="m1070.1 993 5.3-5.3-5.3-5.3z" fill="#185a6a"/><path d="m1052.9 988.8h-11.4v-2.3h11.4z" fill="#185a6a"/><path d="m1045.4 982.3-5.3 5.3 5.3 5.3z" fill="#185a6a"/><path d="m1091 1177.1h83.5c.6 0 1 .4 1 1v19.7c0 .6-.4 1-1 1h-83.5c-.6 0-1-.4-1-1v-19.7c0-.5.5-1 1-1z" fill="#e1ecf7"/><path d="m1082.8 1170.6h83.5c.6 0 1 .4 1 1v19.7c0 .6-.4 1-1 1h-83.5c-.6 0-1-.4-1-1v-19.7c0-.5.4-1 1-1z" fill="#215a9c"/><path d="m1090.9 1179.7h34.2v3h-34.2z" fill="#fff"/><path d="m1159.3 1177.1-8.1 8.1" fill="none" stroke="#fff" stroke-width="2"/><path d="m1151.2 1177.1 8.1 8.1" fill="none" stroke="#fff" stroke-width="2"/><path d="m970.8 1233.8c-1.7 0-3-1.3-3-3v-60h86v60c0 1.7-1.3 3-3 3zm-3-63v-18c0-1.7 1.3-3 3-3h80c1.7 0 3 1.3 3 3v18z" fill="#e1ecf7"/><path d="m963.8 1142.8h80c1.7 0 3 1.3 3 3v18h-86v-18c0-1.7 1.3-3 3-3z" fill="#185a6a"/><path d="m960.8 1163.8h86v60c0 1.7-1.3 3-3 3h-80c-1.7 0-3-1.3-3-3z" fill="#fff"/><path d="m968.9 1151.4h35.2v3.4h-35.2z" fill="#fff"/><path d="m968.9 1174.2h23.9v3h-23.9z" fill="#215a9c"/><path d="m960.9 1182.2h86.4v14h-86.4z" fill="#d0e0f0"/><path d="m968.9 1202.6h31.9v3h-31.9z" fill="#215a9c"/><path d="m968.9 1187.9h31.9v3h-31.9z" fill="#79a1d0"/><path d="m968.9 1215.3h30.8v3h-30.8z" fill="#79a1d0"/><path d="m1215.6 1056.3h100.7c.6 0 1 .4 1 1v64.3c0 .6-.4 1-1 1h-100.7c-.6 0-1-.4-1-1v-64.3c0-.6.5-1 1-1z" fill="none"/><path d="m1215.6 1055.3h100.7c1.1 0 2 .9 2 2v64.3c0 1.1-.9 2-2 2h-100.7c-1.1 0-2-.9-2-2v-64.3c0-1.1.9-2 2-2z" fill="none" stroke="#aac3c8" stroke-dasharray="7" stroke-width="2"/><circle cx="1224" cy="1229.5" fill="none" r="23.4"/><circle cx="1224" cy="1229.5" fill="none" r="22.4" stroke="#aac3c8" stroke-width="2"/><path d="m1222.2 1007.1-5.4 5.4-5.4-5.4z" fill="#185a6a"/><path d="m1211.4 1024.1 5.4 5.4 5.4-5.4z" fill="#185a6a"/><path d="m1222.2 954.5-5.4-5.4-5.4 5.4z" fill="#185a6a"/><path d="m1207.6 1125.6h-19.7c-1.7 0-3-1.3-3-3v-22.1c0-1.7 1.3-3 3-3h56.8c1.7 0 3 1.3 3 3v22.1c0 1.7-1.3 3-3 3h-19.7l-8.7 10.4z" fill="#d0e0f0"/><path d="m1191.6 1105.5h34.7v3h-34.7z" fill="#215a9c"/><path d="m1269 987.7h73.4c1.7 0 3 1.3 3 3v74.6c0 1.7-1.3 3-3 3h-73.4c-1.7 0-3-1.3-3-3v-74.6c0-1.7 1.3-3 3-3z" fill="#185a6a"/><path d="m1191.6 1114.6h24.1v3h-24.1z" fill="#215a9c"/><circle cx="1215.6" cy="1158" fill="#185a6a" r="14"/><g fill="#fff"><path d="m1217 1165.8h-2.7v-10.7h2.7z"/><path d="m1217 1151.4h-2.7v-2.7h2.7z"/><path d="m1281.6 1058.3v-59.3h3v59.3z"/><path d="m1327.2 1057.2v-37.6h3v37.6z"/><path d="m1345.4 1019.5h-62.7v-3h62.7z"/><path d="m1345.4 999h-79.8v-3.4h79.8z"/><path d="m1345.4 1059.3h-79.8v-3h79.8z"/></g><path d="m1273.8 1145.8h74c1.7 0 3 1.3 3 3v16c0 1.7-1.3 3-3 3h-74c-1.7 0-3-1.3-3-3v-16c0-1.7 1.3-3 3-3z" fill="#d0e0f0"/><path d="m1284.9 1160.8h-8v-8h8z" fill="#215a9c"/><path d="m1297.4 1160.8h-8v-8h8z" fill="#215a9c"/><path d="m1321.3 1160.8h-18.2v-8h18.2z" fill="#215a9c"/><path d="m1279.8 1180.8h74c1.7 0 3 1.3 3 3v42c0 1.7-1.3 3-3 3h-74c-1.7 0-3-1.3-3-3v-42c0-1.7 1.3-3 3-3z" fill="#e1ecf7"/><path d="m1345.3 1160.8h-18.3v-8h18.2v8z" fill="#215a9c"/><path d="m1273.8 1173.8h74c1.7 0 3 1.3 3 3v42c0 1.7-1.3 3-3 3h-74c-1.7 0-3-1.3-3-3v-42c0-1.7 1.3-3 3-3z" fill="#fff"/><path d="m1279.8 1184.8h53v3h-53z" fill="#79a1d0"/><path d="m1279.8 1195.8h60v3h-60z" fill="#215a9c"/><path d="m1279.8 1206.8h44v3h-44z" fill="#79a1d0"/></g></svg>