<svg xmlns="http://www.w3.org/2000/svg" width="73.394" height="66.404" viewBox="0 0 73.394 66.404">
  <path id="Path_113" data-name="Path 113" d="M75.394,20.222A19.222,19.222,0,1,1,56.172,1,19.22,19.22,0,0,1,75.394,20.222Zm-27.96-3.495V19.81l-1.562,3.124a1.748,1.748,0,0,0,1.562,2.53H64.909a1.748,1.748,0,0,0,1.562-2.53L64.909,19.81V16.727a8.737,8.737,0,0,0-17.475,0Zm8.737,15.727a5.245,5.245,0,0,0,4.945-3.495H51.226A5.245,5.245,0,0,0,56.172,32.455ZM66.657,56.045V40.381A22.684,22.684,0,0,0,71.9,36.613V56.045A11.362,11.362,0,0,1,61.183,67.386l-.643.017H13.359A11.362,11.362,0,0,1,2.017,56.688L2,56.045v-33.2A11.36,11.36,0,0,1,12.716,11.5l.643-.017H35.2a22.549,22.549,0,0,0-1.475,5.242H13.359a6.116,6.116,0,0,0-6.1,5.613l-.021.5v1.5L36.949,39.979l4.561-2.4a22.7,22.7,0,0,0,5.082,3.25L38.169,45.26a2.632,2.632,0,0,1-2.1.147l-.336-.147L7.242,30.267V56.045a6.116,6.116,0,0,0,5.613,6.1l.5.021H60.54a6.116,6.116,0,0,0,6.1-5.616Z" transform="translate(-2 -1)" fill="#fff"></path>
</svg>
