<svg enable-background="new 0 0 425.5 355.1" viewBox="0 0 425.5 355.1" xmlns="http://www.w3.org/2000/svg" xmlns:xlink="http://www.w3.org/1999/xlink"><linearGradient id="a" gradientTransform="matrix(-373.9489 -174.3752 -130.0535 278.9006 272686.9375 -506583.8438)" gradientUnits="userSpaceOnUse" x1="77.7626" x2="77.6786" y1="1870.5465" y2="1869.4905"><stop offset="0" stop-color="#ebf4fb"/><stop offset="1" stop-color="#fff"/></linearGradient><g transform="translate(-167.266 -1290.271)"><path d="m219.1 1558c49.4 48.2 100.5 35 143.9 42s42.9 44.3 112.9 45.4 164.2-134.2 25.4-266.5-246.7-66.1-293.2-10-38.3 140.8 11 189.1z" fill="url(#a)"/><path d="m193.3 1565.8h114c.6 0 1 .4 1 1v36c0 .6-.4 1-1 1h-114c-.6 0-1-.4-1-1v-36c0-.5.4-1 1-1z" fill="none"/><path d="m193.3 1564.8h114c1.1 0 2 .9 2 2v36c0 1.1-.9 2-2 2h-114c-1.1 0-2-.9-2-2v-36c0-1.1.9-2 2-2z" fill="none" stroke="#e9d047" stroke-width="2"/><path d="m516.1 1290.3-60.3 60.3" fill="none" stroke="#aac3c8" stroke-dasharray="7" stroke-width="2"/><path d="m480.7 1302.4-60.3 60.3" fill="none" stroke="#e9d047" stroke-dasharray="7" stroke-width="2"/><path d="m260.2 1586.3c-1.7 0-3-1.3-3-3v-233c0-1.7 1.3-3 3-3h254.1c1.7 0 3 1.3 3 3v233c0 1.7-1.3 3-3 3z" fill="#e1ecf7"/><path d="m250.2 1337.3h254.1c1.7 0 3 1.3 3 3v17.7h-260.1v-17.7c0-1.6 1.3-3 3-3z" fill="#215a9c"/><path d="m247.2 1357.8h260.1v215.5c0 1.7-1.3 3-3 3h-254.1c-1.7 0-3-1.3-3-3z" fill="#fff"/><g fill="none"><path d="m475.8 1492.8h115c.6 0 1 .4 1 1v72.2c0 .6-.4 1-1 1h-115c-.6 0-1-.4-1-1v-72.2c0-.5.4-1 1-1z"/><path d="m475.8 1491.8h115c1.1 0 2 .9 2 2v72.2c0 1.1-.9 2-2 2h-115c-1.1 0-2-.9-2-2v-72.2c0-1.1.9-2 2-2z" stroke="#aac3c8" stroke-dasharray="7" stroke-width="2"/><circle cx="201.8" cy="1420.6" r="34.5"/><circle cx="201.8" cy="1420.6" r="33.5" stroke="#aac3c8" stroke-dasharray="7" stroke-width="2"/><circle cx="564.8" cy="1378.3" r="20.5"/><circle cx="564.8" cy="1378.3" r="19.5" stroke="#e9d047" stroke-width="2"/></g><path d="m354.3 1368.8h174c.6 0 1 .4 1 1v46c0 .6-.4 1-1 1h-174c-.6 0-1-.4-1-1v-46c0-.5.4-1 1-1z" fill="#e1ecf7"/><path d="m304.3 1437.8h148c.6 0 1 .4 1 1v91c0 .6-.4 1-1 1h-148c-.6 0-1-.4-1-1v-91c0-.5.4-1 1-1z" fill="#e1ecf7"/><path d="m489.3 1456.8h56c.6 0 1 .4 1 1v61c0 .6-.4 1-1 1h-56c-.6 0-1-.4-1-1v-61c0-.5.4-1 1-1z" fill="#185a6a"/><path d="m404.3 1379.8h79v3h-79z" fill="#79a1d0"/><path d="m362.3 1392.8h97v3h-97z" fill="#79a1d0"/><path d="m356.3 1460.8h56v3h-56z" fill="#79a1d0"/><path d="m314.3 1487.8h80v3h-80z" fill="#79a1d0"/><path d="m235.8 1393.8h45c.6 0 1 .4 1 1v154c0 .6-.4 1-1 1h-45c-.6 0-1-.4-1-1v-154c0-.5.4-1 1-1z" fill="#e1ecf7"/><path d="m493.3 1475.8h47v3h-47z" fill="#e9d047"/><path d="m493.3 1498.8h47v3h-47z" fill="#e9d047"/><path d="m362.3 1379.8h33v3h-33z" fill="#215a9c"/><path d="m314.3 1447.8h97v3h-97z" fill="#215a9c"/><path d="m314.3 1473.8h70v3h-70z" fill="#215a9c"/><path d="m493.3 1464.8h47v3h-47z" fill="#fff"/><path d="m493.3 1487.8h47v3h-47z" fill="#fff"/><path d="m493.3 1379.8h23v3h-23z" fill="#215a9c"/><path d="m468.3 1392.8h23v3h-23z" fill="#215a9c"/><path d="m420.3 1460.8h22v3h-22z" fill="#215a9c"/><path d="m403.3 1487.8h38v3h-38z" fill="#215a9c"/><path d="m403.3 1473.8h38v3h-38z" fill="#215a9c"/><path d="m314.3 1460.8h35v3h-35z" fill="#215a9c"/><ellipse cx="260.8" cy="1347.8" fill="#fff" rx="2.5" ry="3"/><circle cx="272.3" cy="1347.8" fill="#fff" r="3"/><circle cx="283.3" cy="1347.8" fill="#fff" r="3"/><text fill="#e9d047" font-family="'ArialRoundedMTBold'" font-size="26" letter-spacing="4" transform="translate(293.428 1404.839)">&lt;/&gt;</text><path d="m227.8 1385.8h45c.6 0 1 .4 1 1v154c0 .6-.4 1-1 1h-45c-.6 0-1-.4-1-1v-154c0-.5.4-1 1-1z" fill="#185a6a"/><path d="m235.3 1408.3h27.6v3h-27.6z" fill="#e9d047"/><path d="m235.3 1431.3h27.6v3h-27.6z" fill="#e9d047"/><path d="m235.3 1397.3h27.6v3h-27.6z" fill="#fff"/><path d="m235.3 1420.3h27.6v3h-27.6z" fill="#fff"/></g></svg>