<svg xmlns="http://www.w3.org/2000/svg" width="95" height="95" viewBox="0 0 95 95">
  <g id="Group_216" data-name="Group 216" transform="translate(-478 -3661)">
    <circle id="Ellipse_38" data-name="Ellipse 38" cx="47.5" cy="47.5" r="47.5" transform="translate(478 3661)" fill="#215a9c"/>
    <path id="Path_111" data-name="Path 111" d="M35.6,26a11.994,11.994,0,1,0-10.409-6.024l-6.514,4.339a9.6,9.6,0,1,0,.552,12.312l9.329,4.663A7.2,7.2,0,1,0,35.6,35.6a7.186,7.186,0,0,0-5.431,2.472l-9.326-4.663a9.657,9.657,0,0,0-.271-6.031L27.442,22.8A11.958,11.958,0,0,0,35.6,26Zm0-3.6A8.4,8.4,0,1,1,44,14,8.4,8.4,0,0,1,35.6,22.4Zm-24,14.4a6,6,0,1,1,6-6A6,6,0,0,1,11.6,36.8Zm27.6,6a3.6,3.6,0,1,1-3.6-3.6A3.6,3.6,0,0,1,39.2,42.8Z" transform="translate(495.885 3682.066)" fill="#fff"/>
  </g>
</svg>
