<svg height="84" viewBox="0 0 84 84" width="84" xmlns="http://www.w3.org/2000/svg" xmlns:xlink="http://www.w3.org/1999/xlink"><filter id="a" filterUnits="userSpaceOnUse" height="87" width="87" x="-1.5" y="-1.5"><feOffset/><feGaussianBlur result="blur" stdDeviation="2.5"/><feFlood flood-color="#aac7e5"/><feComposite in2="blur" operator="in"/><feComposite in="SourceGraphic"/></filter><clipPath id="b"><path d="m0 0h84v84h-84z"/></clipPath><g clip-path="url(#b)"><path d="m0 0h84v84h-84z" fill="#fff"/><path d="m3 14.333h78a3 3 0 0 1 3 3v78a3 3 0 0 1 -3 3h-78a3 3 0 0 1 -3-3v-78a3 3 0 0 1 3-3z" fill="#d0e0f0" transform="translate(0 -14.333)"/><g filter="url(#a)"><rect fill="#fff" height="72" rx="3" transform="translate(6 6)" width="72"/></g><path d="m9 13.5 4 4 4-4z" fill="#185a69" transform="translate(1 19.674)"/><path d="m9 13.5 4 4 4-4z" fill="#185a69" transform="matrix(0 -1 1 0 -1.5 83.174)"/><g fill="#6a6a6a"><path d="m0 0h21v2h-21z" transform="translate(10 16)"/><path d="m0 0h21v2h-21z" transform="translate(46 16)"/><path d="m0 0h11v2h-11z" transform="translate(21 35)"/><path d="m0 0h27v2h-27z" transform="translate(45 35)"/><path d="m0 0h11v2h-11z" transform="translate(21 68)"/><path d="m0 0h13v2h-13z" transform="translate(46 68)"/></g><path d="m0 0h72v15h-72z" fill="#e1ecf7" transform="translate(6 44)"/><path d="m0 0h8v2h-8z" fill="#215a9c" transform="translate(21 50)"/><path d="m0 0h22v2h-22z" fill="#215a9c" transform="translate(45 50)"/><path d="m0 0h72v2h-72z" fill="#215a9c" transform="translate(6 26)"/><path d="m0 0h72v2h-72z" fill="#215a9c" transform="translate(6 59)"/><path d="m0 0h72v2h-72z" fill="#215a9c" transform="matrix(0 -1 1 0 36 78)"/></g></svg>