<svg height="84" viewBox="0 0 84 84" width="84" xmlns="http://www.w3.org/2000/svg" xmlns:xlink="http://www.w3.org/1999/xlink"><filter id="a" filterUnits="userSpaceOnUse" height="31" width="85" x="-.5" y="1.5"><feOffset/><feGaussianBlur result="blur" stdDeviation="2.5"/><feFlood flood-color="#aac7e5"/><feComposite in2="blur" operator="in"/><feComposite in="SourceGraphic"/></filter><clipPath id="b"><path d="m0 0h84v84h-84z"/></clipPath><g clip-path="url(#b)"><path d="m0 0h84v84h-84z" fill="#fff"/><path d="m3 14.333h78a3 3 0 0 1 3 3v78a3 3 0 0 1 -3 3h-78a3 3 0 0 1 -3-3v-78a3 3 0 0 1 3-3z" fill="#d0e0f0" transform="translate(0 -14.333)"/><g filter="url(#a)"><rect fill="#fff" height="16" rx="3" transform="translate(7 9)" width="70"/></g><g fill="#215a9c"><path d="m0 0h9v2h-9z" transform="translate(14 16)"/><path d="m0 0h9v2h-9z" transform="translate(41 16)"/><path d="m0 0h9v2h-9z" transform="translate(63 16)"/></g><path d="m-883.421 1109h-2.728l5.928-7.713-6.369-8.287h2.728l6.368 8.287-5.926 7.713z" fill="#d0e0f0" transform="translate(915 -1084)"/><path d="m-862.421 1109h-2.728l5.928-7.713-6.369-8.287h2.728l6.369 8.287-5.927 7.713z" fill="#d0e0f0" transform="translate(915 -1084)"/></g></svg>