<svg height="84" viewBox="0 0 84 84" width="84" xmlns="http://www.w3.org/2000/svg" xmlns:xlink="http://www.w3.org/1999/xlink"><filter id="a" filterUnits="userSpaceOnUse" height="67" width="85" x="-.5" y="8.5"><feOffset/><feGaussianBlur result="blur" stdDeviation="2.5"/><feFlood flood-color="#aac7e5"/><feComposite in2="blur" operator="in"/><feComposite in="SourceGraphic"/></filter><clipPath id="b"><path d="m0 0h84v84h-84z"/></clipPath><g clip-path="url(#b)"><path d="m0 0h84v84h-84z" fill="#fff"/><path d="m3 14.333h78a3 3 0 0 1 3 3v78a3 3 0 0 1 -3 3h-78a3 3 0 0 1 -3-3v-78a3 3 0 0 1 3-3z" fill="#d0e0f0" transform="translate(0 -14.333)"/><g filter="url(#a)"><path d="m3 52a3 3 0 0 1 -3-3v-46a3 3 0 0 1 3-3h14a3 3 0 0 1 3 3v8h50v38a3 3 0 0 1 -3 3z" fill="#fff" transform="translate(7 16)"/></g><g fill="#185a69"><path d="m3 0h14a3 3 0 0 1 3 3v8a0 0 0 0 1 0 0h-20a0 0 0 0 1 0 0v-8a3 3 0 0 1 3-3z" transform="translate(33 16)"/><path d="m3 0h14a3 3 0 0 1 3 3v8a0 0 0 0 1 0 0h-20a0 0 0 0 1 0 0v-8a3 3 0 0 1 3-3z" transform="translate(57 16)"/></g></g></svg>