<svg height="84" viewBox="0 0 84 84" width="84" xmlns="http://www.w3.org/2000/svg" xmlns:xlink="http://www.w3.org/1999/xlink"><filter id="a" filterUnits="userSpaceOnUse" height="56" width="85" x="-.5" y="13.5"><feOffset/><feGaussianBlur result="blur" stdDeviation="2.5"/><feFlood flood-color="#aac7e5"/><feComposite in2="blur" operator="in"/><feComposite in="SourceGraphic"/></filter><clipPath id="b"><path d="m0 0h84v84h-84z"/></clipPath><g clip-path="url(#b)"><path d="m0 0h84v84h-84z" fill="#fff"/><path d="m3 14.333h78a3 3 0 0 1 3 3v78a3 3 0 0 1 -3 3h-78a3 3 0 0 1 -3-3v-78a3 3 0 0 1 3-3z" fill="#d0e0f0" transform="translate(0 -14.333)"/><g filter="url(#a)"><rect fill="#fff" height="41" rx="3" transform="translate(7 21)" width="70"/></g><path d="m509.616 191.682 9-15 9 15z" fill="#e9d047" transform="translate(-495.616 -146.681)"/><path d="m0 0h2v4h-2z" fill="#185a6a" transform="translate(22 35)"/><path d="m0 0h2v2h-2z" fill="#185a6a" transform="translate(22 41)"/><path d="m0 0h12v5h-12z" fill="#215a9c" transform="translate(38 50)"/><path d="m0 0h12v5h-12z" fill="#215a9c" transform="translate(54 50)"/><g fill="#6a6a6a"><path d="m0 0h28v2h-28z" transform="translate(38 32)"/><path d="m0 0h20v2h-20z" transform="translate(38 39)"/></g></g></svg>