<svg height="84" viewBox="0 0 84 84" width="84" xmlns="http://www.w3.org/2000/svg" xmlns:xlink="http://www.w3.org/1999/xlink"><filter id="a" filterUnits="userSpaceOnUse" height="31" width="78" x="4.5" y="26.5"><feOffset/><feGaussianBlur result="blur" stdDeviation="2.5"/><feFlood flood-color="#aac7e5"/><feComposite in2="blur" operator="in"/><feComposite in="SourceGraphic"/></filter><clipPath id="b"><path d="m508 486h40v8h-40z"/></clipPath><clipPath id="c"><path d="m0 0h84v84h-84z"/></clipPath><g clip-path="url(#c)"><path d="m0 0h84v84h-84z" fill="#fff"/><path d="m3 14.333h78a3 3 0 0 1 3 3v78a3 3 0 0 1 -3 3h-78a3 3 0 0 1 -3-3v-78a3 3 0 0 1 3-3z" fill="#d0e0f0" transform="translate(0 -14.333)"/><g filter="url(#a)"><rect fill="#fff" height="16" rx="3" transform="translate(12 34)" width="63"/></g><g transform="translate(-492 -448)"><path d="m0 0h40v8h-40z" fill="#215a9c" transform="translate(508 486)"/><g clip-path="url(#b)" fill="#aac7e5"><path d="m0 0h6v23h-6z" transform="matrix(.8660254 .5 -.5 .8660254 516.5 479.081)"/><path d="m0 0h6v23h-6z" transform="matrix(.8660254 .5 -.5 .8660254 540.5 479.081)"/><path d="m0 0h6v23h-6z" transform="matrix(.8660254 .5 -.5 .8660254 528.5 479.081)"/><path d="m0 0h6v23h-6z" transform="matrix(.8660254 .5 -.5 .8660254 551.5 479.081)"/></g></g></g></svg>