<svg height="84" viewBox="0 0 84 84" width="84" xmlns="http://www.w3.org/2000/svg" xmlns:xlink="http://www.w3.org/1999/xlink"><filter id="a" filterUnits="userSpaceOnUse" height="86" width="72" x="6.5" y="-1.5"><feOffset/><feGaussianBlur result="blur" stdDeviation="2.5"/><feFlood flood-color="#aac7e5"/><feComposite in2="blur" operator="in"/><feComposite in="SourceGraphic"/></filter><clipPath id="b"><path d="m0 0h84v84h-84z"/></clipPath><g clip-path="url(#b)"><path d="m0 0h84v84h-84z" fill="#fff"/><path d="m3 14.333h78a3 3 0 0 1 3 3v78a3 3 0 0 1 -3 3h-78a3 3 0 0 1 -3-3v-78a3 3 0 0 1 3-3z" fill="#d0e0f0" transform="translate(0 -14.333)"/><g filter="url(#a)"><rect fill="#fff" height="71" rx="3" transform="translate(14 6)" width="57"/></g><path d="m0 0h57v12h-57z" fill="#e1ecf7" transform="translate(14 36)"/><path d="m0 0h26v2h-26z" fill="#215a9c" transform="translate(22 41)"/><g fill="#6a6a6a"><path d="m0 0h26v2h-26z" transform="translate(22 28)"/><path d="m0 0h21v2h-21z" transform="translate(22 54)"/><path d="m0 0h21v2h-21z" transform="translate(22 67)"/><path d="m0 0h21v2h-21z" transform="translate(22 15)"/></g></g></svg>