<svg height="84" viewBox="0 0 84 84" width="84" xmlns="http://www.w3.org/2000/svg" xmlns:xlink="http://www.w3.org/1999/xlink"><filter id="a" filterUnits="userSpaceOnUse" height="33" width="85" x="-.5" y="1.5"><feOffset/><feGaussianBlur result="blur" stdDeviation="2.5"/><feFlood flood-color="#aac7e5"/><feComposite in2="blur" operator="in"/><feComposite in="SourceGraphic"/></filter><clipPath id="b"><path d="m0 0h84v84h-84z"/></clipPath><g clip-path="url(#b)"><path d="m0 0h84v84h-84z" fill="#fff"/><path d="m3 14.333h78a3 3 0 0 1 3 3v78a3 3 0 0 1 -3 3h-78a3 3 0 0 1 -3-3v-78a3 3 0 0 1 3-3z" fill="#d0e0f0" transform="translate(0 -14.333)"/><g filter="url(#a)"><rect fill="#fff" height="18" rx="3" transform="translate(7 9)" width="70"/></g><path d="m0 0h28v2h-28z" fill="#6a6a6a" transform="translate(14 17)"/><g fill="none" stroke="#6a6a6a" stroke-width="2"><path d="m381.845 48.254-6.045 6.046" transform="translate(-310.531 -33.278)"/><path d="m375.8 48.254 6.048 6.048" transform="translate(-310.531 -33.278)"/></g></g></svg>