<svg height="84" viewBox="0 0 84 84" width="84" xmlns="http://www.w3.org/2000/svg" xmlns:xlink="http://www.w3.org/1999/xlink"><filter id="a" filterUnits="userSpaceOnUse" height="87" width="87" x="-1.5" y="-1.5"><feOffset/><feGaussianBlur result="blur" stdDeviation="2.5"/><feFlood flood-color="#aac7e5"/><feComposite in2="blur" operator="in"/><feComposite in="SourceGraphic"/></filter><clipPath id="b"><path d="m0 0h84v84h-84z"/></clipPath><g clip-path="url(#b)"><path d="m0 0h84v84h-84z" fill="#fff"/><path d="m3 14.333h78a3 3 0 0 1 3 3v78a3 3 0 0 1 -3 3h-78a3 3 0 0 1 -3-3v-78a3 3 0 0 1 3-3z" fill="#d0e0f0" transform="translate(0 -14.333)"/><g filter="url(#a)"><rect fill="#fff" height="72" rx="3" transform="translate(6 6)" width="72"/></g><path d="m14.992 18.992h-13.992a3 3 0 0 1 -3-3v-14.992a3 3 0 0 1 3-3h41a3 3 0 0 1 3 3v14.992a3 3 0 0 1 -3 3h-13.991l-6.509 7.758z" fill="#d0e0f0" transform="translate(20.5 18.25)"/><g fill="#215a9c"><path d="m0 0h26v2h-26z" transform="translate(25 23)"/><path d="m0 0h18v2h-18z" transform="translate(25 29)"/><circle cx="10.5" cy="10.5" r="10.5" transform="translate(32 51)"/></g><path d="m0 0h2v8h-2z" fill="#fff" transform="matrix(-1 0 0 -1 43.5 67.32)"/><path d="m0 0h2v2h-2z" fill="#fff" transform="matrix(-1 0 0 -1 43.5 57.32)"/></g></svg>