<svg height="84" viewBox="0 0 84 84" width="84" xmlns="http://www.w3.org/2000/svg" xmlns:xlink="http://www.w3.org/1999/xlink"><filter id="a" filterUnits="userSpaceOnUse" height="33" width="85" x="-.5" y="1.5"><feOffset/><feGaussianBlur result="blur" stdDeviation="2.5"/><feFlood flood-color="#aac7e5"/><feComposite in2="blur" operator="in"/><feComposite in="SourceGraphic"/></filter><filter id="b" filterUnits="userSpaceOnUse" height="60" width="85" x="-.5" y="23.5"><feOffset/><feGaussianBlur result="blur-2" stdDeviation="2.5"/><feFlood flood-color="#aac7e5"/><feComposite in2="blur-2" operator="in"/><feComposite in="SourceGraphic"/></filter><clipPath id="c"><path d="m0 0h84v84h-84z"/></clipPath><g clip-path="url(#c)"><path d="m0 0h84v84h-84z" fill="#fff"/><path d="m3 14.333h78a3 3 0 0 1 3 3v78a3 3 0 0 1 -3 3h-78a3 3 0 0 1 -3-3v-78a3 3 0 0 1 3-3z" fill="#d0e0f0" transform="translate(0 -14.333)"/><g filter="url(#a)"><rect fill="#fff" height="18" rx="3" transform="translate(7 9)" width="70"/></g><g filter="url(#b)"><rect fill="#fff" height="45" rx="3" transform="translate(7 31)" width="70"/></g><path d="m0 0h46v2h-46z" fill="#6a6a6a" transform="translate(14 51)"/><path d="m0 0h39v2h-39z" fill="#6a6a6a" transform="translate(14 60)"/><path d="m0 0h42v2h-42z" fill="#6a6a6a" transform="translate(14 42)"/><g fill="#215a9c"><rect height="6" rx="2" transform="matrix(-1 0 0 -1 53 21)" width="14"/><rect height="6" rx="2" transform="matrix(-1 0 0 -1 71 21)" width="14"/><rect height="6" rx="2" transform="matrix(-1 0 0 -1 22 21)" width="9"/><rect height="6" rx="2" transform="matrix(-1 0 0 -1 35 21)" width="9"/></g></g></svg>