<svg height="84" viewBox="0 0 84 84" width="84" xmlns="http://www.w3.org/2000/svg" xmlns:xlink="http://www.w3.org/1999/xlink"><filter id="a" filterUnits="userSpaceOnUse" height="60" width="85" x="-.5" y="9.5"><feOffset/><feGaussianBlur result="blur" stdDeviation="2.5"/><feFlood flood-color="#aac7e5"/><feComposite in2="blur" operator="in"/><feComposite in="SourceGraphic"/></filter><clipPath id="b"><path d="m0 0h84v84h-84z"/></clipPath><g clip-path="url(#b)"><path d="m0 0h84v84h-84z" fill="#fff"/><path d="m3 14.333h78a3 3 0 0 1 3 3v78a3 3 0 0 1 -3 3h-78a3 3 0 0 1 -3-3v-78a3 3 0 0 1 3-3z" fill="#d0e0f0" transform="translate(0 -14.333)"/><g filter="url(#a)"><rect fill="#fff" height="45" rx="3" transform="translate(7 17)" width="70"/></g><path d="m0 0h12v5h-12z" fill="#215a9c" transform="translate(42 51)"/><path d="m0 0h12v5h-12z" fill="#215a9c" transform="translate(58 51)"/><g fill="#6a6a6a"><path d="m0 0h28v2h-28z" transform="translate(14 35)"/><path d="m0 0h20v2h-20z" transform="translate(14 42)"/><path d="m0 0h20v2h-20z" transform="translate(32 24)"/></g></g></svg>