<svg height="84" viewBox="0 0 84 84" width="84" xmlns="http://www.w3.org/2000/svg" xmlns:xlink="http://www.w3.org/1999/xlink"><filter id="a" filterUnits="userSpaceOnUse" height="86" width="87" x="-1.5" y="-1.5"><feOffset/><feGaussianBlur result="blur" stdDeviation="2.5"/><feFlood flood-color="#aac7e5"/><feComposite in2="blur" operator="in"/><feComposite in="SourceGraphic"/></filter><filter id="b" filterUnits="userSpaceOnUse" height="86" width="87" x="-1.5" y="-1.5"><feOffset/><feGaussianBlur result="blur-2" stdDeviation="2.5"/><feFlood flood-color="#aac7e5"/><feComposite in2="blur-2" operator="in"/><feComposite in="SourceGraphic"/></filter><clipPath id="c"><path d="m0 0h84v84h-84z"/></clipPath><g clip-path="url(#c)"><path d="m0 0h84v84h-84z" fill="#fff"/><path d="m3 14.333h78a3 3 0 0 1 3 3v78a3 3 0 0 1 -3 3h-78a3 3 0 0 1 -3-3v-78a3 3 0 0 1 3-3z" fill="#e1ecf7" transform="translate(0 -14.333)"/><g filter="url(#a)"><rect fill="#fff" height="71" rx="3" transform="translate(6 6)" width="72"/></g><path d="m3 0h66a3 3 0 0 1 3 3v9a0 0 0 0 1 0 0h-72a0 0 0 0 1 0 0v-9a3 3 0 0 1 3-3z" fill="#215a9c" transform="translate(6 6)"/><path d="m3 0h66a3 3 0 0 1 3 3v9a0 0 0 0 1 0 0h-72a0 0 0 0 1 0 0v-9a3 3 0 0 1 3-3z" fill="#215a9c" transform="matrix(-1 0 0 -1 78 77)"/><path d="m0 0h72v12h-72z" fill="#215a9c" transform="matrix(-1 0 0 -1 78 63)"/><path d="m0 0h72v2h-72z" fill="#79a1d0" transform="matrix(-1 0 0 -1 78 65)"/><path d="m0 0h32v2h-32z" fill="#185a6a" transform="translate(13.991 25.96)"/><path d="m0 0h16v2h-16z" fill="#185a6a" transform="translate(13.991 32.96)"/><path d="m0 0h24.009v2h-24.009z" fill="#185a6a" transform="translate(13.991 39.96)"/><g fill="#fff"><path d="m9 13.5 4.651 4.651 4.649-4.651z" transform="matrix(-1 0 0 -1 82.651 27.977)"/><path d="m9 13.5 4.651 4.651 4.649-4.651z" transform="translate(55.349 41.174)"/><path d="m9 13.5 4.651 4.651 4.649-4.651z" transform="translate(55.349 55.174)"/></g><path d="m3 14.333h78a3 3 0 0 1 3 3v78a3 3 0 0 1 -3 3h-78a3 3 0 0 1 -3-3v-78a3 3 0 0 1 3-3z" fill="#d0e0f0" transform="translate(0 -14.333)"/><g filter="url(#b)"><rect fill="#fff" height="71" rx="3" transform="translate(6 6)" width="72"/></g><path d="m3 0h66a3 3 0 0 1 3 3v9a0 0 0 0 1 0 0h-72a0 0 0 0 1 0 0v-9a3 3 0 0 1 3-3z" fill="#e1ecf7" transform="translate(6 6)"/><path d="m3 0h66a3 3 0 0 1 3 3v9a0 0 0 0 1 0 0h-72a0 0 0 0 1 0 0v-9a3 3 0 0 1 3-3z" fill="#e1ecf7" transform="matrix(-1 0 0 -1 78 77)"/><path d="m0 0h72v12h-72z" fill="#e1ecf7" transform="matrix(-1 0 0 -1 78 63)"/><path d="m0 0h72v2h-72z" fill="#fff" transform="matrix(-1 0 0 -1 78 65)"/><path d="m0 0h32v2h-32z" fill="#6a6a6a" transform="translate(14 26)"/><path d="m0 0h16v2h-16z" fill="#6a6a6a" transform="translate(13.991 33.96)"/><path d="m0 0h24v2h-24z" fill="#6a6a6a" transform="translate(14 42)"/><path d="m9 13.5 4.651 4.651 4.649-4.651z" fill="#215a9c" transform="matrix(-1 0 0 -1 82.651 27.977)"/><path d="m9 13.5 4.651 4.651 4.649-4.651z" fill="#215a9c" transform="translate(55.349 41.174)"/><path d="m9 13.5 4.651 4.651 4.649-4.651z" fill="#215a9c" transform="translate(55.349 55.174)"/></g></svg>