<svg height="84" viewBox="0 0 84 84" width="84" xmlns="http://www.w3.org/2000/svg" xmlns:xlink="http://www.w3.org/1999/xlink"><filter id="a" filterUnits="userSpaceOnUse" height="87" width="87" x="-1.5" y="-1.5"><feOffset/><feGaussianBlur result="blur" stdDeviation="2.5"/><feFlood flood-color="#aac7e5"/><feComposite in2="blur" operator="in"/><feComposite in="SourceGraphic"/></filter><clipPath id="b"><path d="m0 0h84v84h-84z"/></clipPath><g clip-path="url(#b)"><path d="m0 0h84v84h-84z" fill="#fff"/><path d="m3 14.333h78a3 3 0 0 1 3 3v78a3 3 0 0 1 -3 3h-78a3 3 0 0 1 -3-3v-78a3 3 0 0 1 3-3z" fill="#d0e0f0" transform="translate(0 -14.333)"/><g filter="url(#a)"><rect fill="#fff" height="72" rx="3" transform="translate(6 6)" width="72"/></g><path d="m0 0h56v2h-56z" fill="#aac7e5" transform="translate(14 19)"/><rect fill="#215a9c" height="14" rx="1" transform="translate(25 13)" width="4"/><path d="m0 0h56v2h-56z" fill="#aac7e5" transform="translate(14 41)"/><rect fill="#215a9c" height="14" rx="1" transform="translate(25 35)" width="4"/><path d="m0 0h56v2h-56z" fill="#aac7e5" transform="translate(14 63)"/><rect fill="#215a9c" height="14" rx="1" transform="translate(25 57)" width="4"/></g></svg>