<svg height="84" viewBox="0 0 84 84" width="84" xmlns="http://www.w3.org/2000/svg" xmlns:xlink="http://www.w3.org/1999/xlink"><filter id="a" filterUnits="userSpaceOnUse" height="60" width="73" x="6.5" y="13.5"><feOffset/><feGaussianBlur result="blur" stdDeviation="2.5"/><feFlood flood-color="#aac7e5"/><feComposite in2="blur" operator="in"/><feComposite in="SourceGraphic"/></filter><clipPath id="b"><path d="m0 0h84v84h-84z"/></clipPath><g clip-path="url(#b)"><path d="m0 0h84v84h-84z" fill="#fff"/><path d="m3 14.333h78a3 3 0 0 1 3 3v78a3 3 0 0 1 -3 3h-78a3 3 0 0 1 -3-3v-78a3 3 0 0 1 3-3z" fill="#d0e0f0" transform="translate(0 -14.333)"/><g filter="url(#a)"><rect fill="#fff" height="45" rx="1" transform="translate(14 21)" width="58"/></g><path d="m0 0h58v10h-58z" fill="#e1ecf7" transform="translate(14 33)"/><path d="m0 0h58v10h-58z" fill="#e1ecf7" transform="translate(14 56)"/><g fill="#215a9c"><path d="m0 0h58v2h-58z" transform="translate(14 32)"/><path d="m0 0h58v2h-58z" transform="translate(14 43)"/><path d="m0 0h58v2h-58z" transform="translate(14 54)"/><path d="m0 0h45v2h-45z" transform="matrix(0 -1 1 0 31 66)"/><path d="m0 0h45v2h-45z" transform="matrix(0 -1 1 0 53 66)"/></g></g></svg>