<svg height="84" viewBox="0 0 84 84" width="84" xmlns="http://www.w3.org/2000/svg" xmlns:xlink="http://www.w3.org/1999/xlink"><filter id="a" filterUnits="userSpaceOnUse" height="67" width="59" x="2.5" y="14.5"><feOffset/><feGaussianBlur result="blur" stdDeviation="2.5"/><feFlood flood-color="#aac7e5"/><feComposite in2="blur" operator="in"/><feComposite in="SourceGraphic"/></filter><filter id="b" filterUnits="userSpaceOnUse" height="30" width="85" x="-.5" y="4.5"><feOffset/><feGaussianBlur result="blur-2" stdDeviation="2.5"/><feFlood flood-color="#aac7e5"/><feComposite in2="blur-2" operator="in"/><feComposite in="SourceGraphic"/></filter><clipPath id="c"><path d="m0 0h84v84h-84z"/></clipPath><g clip-path="url(#c)"><path d="m0 0h84v84h-84z" fill="#fff"/><path d="m3 14.333h78a3 3 0 0 1 3 3v78a3 3 0 0 1 -3 3h-78a3 3 0 0 1 -3-3v-78a3 3 0 0 1 3-3z" fill="#d0e0f0" transform="translate(0 -14.333)"/><g filter="url(#a)"><rect fill="#fff" height="52" rx="3" transform="translate(10 22)" width="44"/></g><g filter="url(#b)"><rect fill="#185a69" height="15" rx="3" transform="translate(7 12)" width="70"/></g><path d="m0 0h26v2h-26z" fill="#6a6a6a" transform="translate(18 54)"/><path d="m0 0h26v2h-26z" fill="#6a6a6a" transform="translate(18 44)"/><path d="m0 0h21v2h-21z" fill="#6a6a6a" transform="translate(18 64)"/><path d="m0 0h21v2h-21z" fill="#6a6a6a" transform="translate(18 34)"/><g fill="#fff"><path d="m0 0h13v2h-13z" transform="translate(16 19)"/><path d="m0 0h13v2h-13z" transform="translate(45 19)"/><path d="m9 13.5 3 3 3-3z" transform="translate(22.349 4.5)"/><path d="m9 13.5 3 3 3-3z" transform="translate(51.349 4.5)"/></g></g></svg>