<svg height="84" viewBox="0 0 84 84" width="84" xmlns="http://www.w3.org/2000/svg" xmlns:xlink="http://www.w3.org/1999/xlink"><filter id="a" filterUnits="userSpaceOnUse" height="87" width="87" x="-1.5" y="-1.5"><feOffset/><feGaussianBlur result="blur" stdDeviation="2.5"/><feFlood flood-color="#aac7e5"/><feComposite in2="blur" operator="in"/><feComposite in="SourceGraphic"/></filter><clipPath id="b"><path d="m0 0h84v84h-84z"/></clipPath><g clip-path="url(#b)"><path d="m0 0h84v84h-84z" fill="#fff"/><path d="m3 14.333h78a3 3 0 0 1 3 3v78a3 3 0 0 1 -3 3h-78a3 3 0 0 1 -3-3v-78a3 3 0 0 1 3-3z" fill="#d0e0f0" transform="translate(0 -14.333)"/><g filter="url(#a)"><rect fill="#fff" height="72" rx="3" transform="translate(6 6)" width="72"/></g><g fill="#185a69"><path d="m0 0h59v2h-59z" transform="translate(13 23)"/><path d="m0 0h59v2h-59z" transform="translate(13 38)"/><path d="m0 0h59v2h-59z" transform="translate(13 53)"/><path d="m0 0h59v2h-59z" transform="translate(13 68)"/></g><path d="m0 0h15v2h-15z" fill="#6a6a6a" transform="translate(13 31)"/><path d="m0 0h11v2h-11z" fill="#185a69" transform="translate(13 16)"/><path d="m0 0h13v2h-13z" fill="#6a6a6a" transform="translate(37 31)"/><path d="m0 0h13v2h-13z" fill="#185a69" transform="translate(37 16)"/><path d="m0 0h13v2h-13z" fill="#185a69" transform="translate(59 16)"/><path d="m0 0h18v2h-18z" fill="#6a6a6a" transform="translate(13 46)"/><path d="m0 0h11v2h-11z" fill="#6a6a6a" transform="translate(37 46)"/><path d="m0 0h15v2h-15z" fill="#6a6a6a" transform="translate(13 60)"/><path d="m0 0h13v2h-13z" fill="#6a6a6a" transform="translate(37 60)"/><path d="m0 0h12v5h-12z" fill="#215a9c" transform="translate(60 29)"/><path d="m0 0h12v5h-12z" fill="#215a9c" transform="translate(60 44)"/><path d="m0 0h12v5h-12z" fill="#215a9c" transform="translate(60 59)"/></g></svg>