<svg height="84" viewBox="0 0 84 84" width="84" xmlns="http://www.w3.org/2000/svg" xmlns:xlink="http://www.w3.org/1999/xlink"><filter id="a" filterUnits="userSpaceOnUse" height="86" width="87" x="-1.5" y="-1.5"><feOffset/><feGaussianBlur result="blur" stdDeviation="2.5"/><feFlood flood-color="#aac7e5"/><feComposite in2="blur" operator="in"/><feComposite in="SourceGraphic"/></filter><clipPath id="b"><path d="m0 0h84v84h-84z"/></clipPath><g clip-path="url(#b)"><path d="m0 0h84v84h-84z" fill="#fff"/><path d="m3 14.333h78a3 3 0 0 1 3 3v78a3 3 0 0 1 -3 3h-78a3 3 0 0 1 -3-3v-78a3 3 0 0 1 3-3z" fill="#e1ecf7" transform="translate(0 -14.333)"/><g filter="url(#a)"><rect fill="#fff" height="71" rx="3" transform="translate(6 6)" width="72"/></g><path d="m3 0h66a3 3 0 0 1 3 3v10a0 0 0 0 1 0 0h-72a0 0 0 0 1 0 0v-10a3 3 0 0 1 3-3z" fill="#215a9c" transform="translate(6 6)"/><g fill="#185a6a"><path d="m0 0h58.426v2h-58.426z" transform="matrix(0 -1 1 0 42.906 77.173)"/><path d="m0 0h58.426v2h-58.426z" transform="matrix(0 -1 1 0 38.094 77.173)"/><path d="m0 0h10v2h-10z" transform="translate(43.906 45.041)"/><path d="m0 0 4.661 4.661 4.662-4.661z" transform="matrix(0 -1 1 0 51.416 50.716)"/><path d="m0 0h10v2h-10z" transform="matrix(-1 0 0 -1 39.094 47.068)"/><path d="m0 0 4.661 4.661 4.662-4.661z" transform="matrix(0 1 -1 0 31.584 41.393)"/></g></g></svg>