<svg height="84" viewBox="0 0 84 84" width="84" xmlns="http://www.w3.org/2000/svg" xmlns:xlink="http://www.w3.org/1999/xlink"><filter id="a" filterUnits="userSpaceOnUse" height="86" width="72" x="5.5" y="-1.5"><feOffset/><feGaussianBlur result="blur" stdDeviation="2.5"/><feFlood flood-color="#aac7e5"/><feComposite in2="blur" operator="in"/><feComposite in="SourceGraphic"/></filter><clipPath id="b"><path d="m0 0h84v84h-84z"/></clipPath><g clip-path="url(#b)"><path d="m0 0h84v84h-84z" fill="#fff"/><path d="m3 14.333h78a3 3 0 0 1 3 3v78a3 3 0 0 1 -3 3h-78a3 3 0 0 1 -3-3v-78a3 3 0 0 1 3-3z" fill="#d0e0f0" transform="translate(0 -14.333)"/><g filter="url(#a)"><rect fill="#fff" height="71" rx="3" transform="translate(13 6)" width="57"/></g><path d="m3 0h51a3 3 0 0 1 3 3v15a0 0 0 0 1 0 0h-57a0 0 0 0 1 0 0v-15a3 3 0 0 1 3-3z" fill="#215a9c" transform="translate(13 6)"/><path d="m0 0h18v2h-18z" fill="#fff" transform="translate(21 15)"/><path d="m0 0h18v2h-18z" fill="#6a6a6a" transform="translate(21 32)"/><path d="m0 0h57v12h-57z" fill="#e1ecf7" transform="translate(13 38)"/><path d="m0 0h24v2h-24z" fill="#6a6a6a" transform="translate(21 54)"/><path d="m0 0h26v2h-26z" fill="#215a9c" transform="translate(21 43)"/><path d="m0 0h23v2h-23z" fill="#6a6a6a" transform="translate(21 65)"/></g></svg>