<svg height="84" viewBox="0 0 84 84" width="84" xmlns="http://www.w3.org/2000/svg" xmlns:xlink="http://www.w3.org/1999/xlink"><filter id="a" filterUnits="userSpaceOnUse" height="52" width="73" x="5.701" y="3.414"><feOffset/><feGaussianBlur result="blur" stdDeviation="2.5"/><feFlood flood-color="#aac7e5" flood-opacity=".161"/><feComposite in2="blur" operator="in"/><feComposite in="SourceGraphic"/></filter><clipPath id="b"><rect height="36.515" rx="3" width="57.113"/></clipPath><clipPath id="c"><path d="m0 0h84v84h-84z"/></clipPath><g clip-path="url(#c)"><path d="m0 0h84v84h-84z" fill="#fff"/><path d="m3 14.333h78a3 3 0 0 1 3 3v78a3 3 0 0 1 -3 3h-78a3 3 0 0 1 -3-3v-78a3 3 0 0 1 3-3z" fill="#d0e0f0" transform="translate(0 -14.333)"/><path d="m0 0 6.322 7.64 6.322-7.64z" fill="#185a69" transform="matrix(0 1 -1 0 25.64 59.827)"/><path d="m0 7.64 6.322-7.64 6.322 7.64z" fill="#185a69" transform="matrix(0 1 -1 0 66.899 59.827)"/><g filter="url(#a)"><rect fill="#fff" height="37" rx="3" transform="translate(13.2 10.91)" width="58"/></g><path d="m18.681 14.591a4.091 4.091 0 1 1 -4.09-4.091 4.091 4.091 0 0 1 4.09 4.091z" fill="#e9d047" transform="translate(14.236 6.425)"/><g clip-path="url(#b)" transform="translate(14.089 11.399)"><path d="m15.908 24.813h-15.908l17.872-17.263 8.059 7.784 16.215-15.334 12.382 12.382-.716 11.612-35.9.775-.045.043z" fill="#185a69" transform="translate(3.738 12.856)"/></g></g></svg>