<svg height="84" viewBox="0 0 84 84" width="84" xmlns="http://www.w3.org/2000/svg" xmlns:xlink="http://www.w3.org/1999/xlink"><filter id="a" filterUnits="userSpaceOnUse" height="87" width="87" x="-1.5" y="-1.5"><feOffset/><feGaussianBlur result="blur" stdDeviation="2.5"/><feFlood flood-color="#aac7e5"/><feComposite in2="blur" operator="in"/><feComposite in="SourceGraphic"/></filter><clipPath id="b"><path d="m0 0h84v84h-84z"/></clipPath><g clip-path="url(#b)"><path d="m0 0h84v84h-84z" fill="#fff"/><path d="m3 14.333h78a3 3 0 0 1 3 3v78a3 3 0 0 1 -3 3h-78a3 3 0 0 1 -3-3v-78a3 3 0 0 1 3-3z" fill="#d0e0f0" transform="translate(0 -14.333)"/><g filter="url(#a)"><rect fill="#fff" height="72" rx="3" transform="translate(6 6)" width="72"/></g><g fill="#185a69"><path d="m9 13.5 4.651 4.651 4.649-4.651z" transform="matrix(0 -1 1 0 .326 30.989)"/><path d="m9.5 13.663 4 4 5-4z" transform="translate(2.5 15.337)"/><path d="m9 13.5 4.651 4.651 4.649-4.651z" transform="matrix(0 -1 1 0 .326 80.314)"/></g><path d="m0 0h47v2h-47z" fill="#215a9c" transform="translate(26 17)"/><path d="m0 0h45v2h-45z" fill="#215a9c" transform="translate(26 30)"/><path d="m0 0h47v2h-47z" fill="#215a9c" transform="translate(26 66)"/><path d="m0 0h40v2h-40z" fill="#6a6a6a" transform="translate(26 38)"/><path d="m0 0h45v2h-45z" fill="#6a6a6a" transform="translate(26 46)"/><path d="m0 0h33v2h-33z" fill="#6a6a6a" transform="translate(26 54)"/></g></svg>