<svg height="84" viewBox="0 0 84 84" width="84" xmlns="http://www.w3.org/2000/svg" xmlns:xlink="http://www.w3.org/1999/xlink"><filter id="a" filterUnits="userSpaceOnUse" height="67" width="57" x="4.5" y="14.5"><feOffset/><feGaussianBlur result="blur" stdDeviation="2.5"/><feFlood flood-color="#aac7e5"/><feComposite in2="blur" operator="in"/><feComposite in="SourceGraphic"/></filter><filter id="b" filterUnits="userSpaceOnUse" height="30" width="68" x="4.5" y="4.5"><feOffset/><feGaussianBlur result="blur-2" stdDeviation="2.5"/><feFlood flood-color="#aac7e5"/><feComposite in2="blur-2" operator="in"/><feComposite in="SourceGraphic"/></filter><clipPath id="c"><path d="m0 0h84v84h-84z"/></clipPath><g clip-path="url(#c)"><path d="m0 0h84v84h-84z" fill="#fff"/><path d="m3 14.333h78a3 3 0 0 1 3 3v78a3 3 0 0 1 -3 3h-78a3 3 0 0 1 -3-3v-78a3 3 0 0 1 3-3z" fill="#d0e0f0" transform="translate(0 -14.333)"/><g filter="url(#a)"><rect fill="#fff" height="52" rx="3" transform="translate(12 22)" width="42"/></g><g filter="url(#b)"><path d="m3 0h47a3 3 0 0 1 3 3v9a3 3 0 0 1 -3 3h-50a0 0 0 0 1 0 0v-12a3 3 0 0 1 3-3z" fill="#185a69" transform="translate(12 12)"/></g><g fill="#6a6a6a"><path d="m0 0h26v2h-26z" transform="translate(20 54)"/><path d="m0 0h26v2h-26z" transform="translate(20 44)"/><path d="m0 0h21v2h-21z" transform="translate(20 64)"/><path d="m0 0h21v2h-21z" transform="translate(20 34)"/></g><path d="m0 0h28.094v2h-28.094z" fill="#fff" transform="translate(23.811 19)"/><path d="m11.214 12.214h-3.937l2.072 5.046a.689.689 0 0 1 -.35.891l-1.824.8a.656.656 0 0 1 -.866-.36l-1.969-4.798-3.216 3.307a.657.657 0 0 1 -1.124-.476v-15.945a.657.657 0 0 1 1.124-.479l10.554 10.858a.68.68 0 0 1 -.464 1.156z" fill="#215a9c" transform="translate(61.125 29)"/></g></svg>