<svg height="84" viewBox="0 0 84 84" width="84" xmlns="http://www.w3.org/2000/svg" xmlns:xlink="http://www.w3.org/1999/xlink"><filter id="a" filterUnits="userSpaceOnUse" height="87" width="87" x="-1.5" y="-1.5"><feOffset/><feGaussianBlur result="blur" stdDeviation="2.5"/><feFlood flood-color="#aac7e5"/><feComposite in2="blur" operator="in"/><feComposite in="SourceGraphic"/></filter><clipPath id="b"><path d="m0 0h84v84h-84z"/></clipPath><g clip-path="url(#b)"><path d="m0 0h84v84h-84z" fill="#fff"/><path d="m3 14.333h78a3 3 0 0 1 3 3v78a3 3 0 0 1 -3 3h-78a3 3 0 0 1 -3-3v-78a3 3 0 0 1 3-3z" fill="#d0e0f0" transform="translate(0 -14.333)"/><g filter="url(#a)"><rect fill="#fff" height="72" rx="3" transform="translate(6 6)" width="72"/></g><path d="m0 0h28v2h-28z" fill="#6a6a6a" transform="translate(35 21)"/><path d="m0 0h28v2h-28z" fill="#6a6a6a" transform="translate(35 61)"/><rect fill="#e1ecf7" height="20" rx="1" transform="translate(12 32)" width="60"/><g fill="none" stroke="#aac7e5" stroke-width="3" transform="translate(17 16)"><rect height="12" rx="6" stroke="none" width="12"/><rect fill="none" height="9" rx="4.5" width="9" x="1.5" y="1.5"/></g><g fill="#fff" stroke="#215a9c" stroke-width="4" transform="translate(17 36)"><rect height="12" rx="6" stroke="none" width="12"/><rect fill="none" height="8" rx="4" width="8" x="2" y="2"/></g><g fill="none" stroke="#aac7e5" stroke-width="3" transform="translate(17 57)"><rect height="12" rx="6" stroke="none" width="12"/><rect fill="none" height="9" rx="4.5" width="9" x="1.5" y="1.5"/></g><path d="m0 0h28v2h-28z" fill="#215a9c" transform="translate(35 41)"/></g></svg>