<svg height="84" viewBox="0 0 84 84" width="84" xmlns="http://www.w3.org/2000/svg" xmlns:xlink="http://www.w3.org/1999/xlink"><filter id="a" filterUnits="userSpaceOnUse" height="38" width="79" x="2.5" y="4.5"><feOffset/><feGaussianBlur result="blur" stdDeviation="2.5"/><feFlood flood-color="#aac7e5"/><feComposite in2="blur" operator="in"/><feComposite in="SourceGraphic"/></filter><filter id="b" filterUnits="userSpaceOnUse" height="38" width="79" x="2.5" y="35.5"><feOffset/><feGaussianBlur result="blur-2" stdDeviation="2.5"/><feFlood flood-color="#aac7e5"/><feComposite in2="blur-2" operator="in"/><feComposite in="SourceGraphic"/></filter><clipPath id="c"><rect height="84" rx="3" width="84" x="783" y="256"/></clipPath><filter id="d" filterUnits="userSpaceOnUse" height="30" width="79" x="2.5" y="66.5"><feOffset/><feGaussianBlur result="blur-3" stdDeviation="2.5"/><feFlood flood-color="#aac7e5"/><feComposite in2="blur-3" operator="in"/><feComposite in="SourceGraphic"/></filter><clipPath id="e"><path d="m0 0h84v84h-84z"/></clipPath><g clip-path="url(#e)"><path d="m0 0h84v84h-84z" fill="#fff"/><g transform="translate(-783 -256)"><path d="m3 14.333h78a3 3 0 0 1 3 3v78a3 3 0 0 1 -3 3h-78a3 3 0 0 1 -3-3v-78a3 3 0 0 1 3-3z" fill="#d0e0f0" transform="translate(783 241.667)"/><g filter="url(#a)" transform="translate(783 256)"><rect fill="#fff" height="23" rx="3" transform="translate(10 12)" width="64"/></g><g fill="#6a6a6a" stroke="#707070" transform="translate(799 274)"><path d="m0 0h26v2h-26z" stroke="none"/><path d="m.5.5h25v1h-25z" fill="none"/></g><g fill="none" stroke="#215a9c" transform="translate(825 283)"><path d="m0 0h26v2h-26z" stroke="none"/><path d="m.5.5h25v1h-25z" fill="none"/></g><g fill="#6a6a6a" stroke="#707070" transform="translate(799 280)"><path d="m0 0h14v2h-14z" stroke="none"/><path d="m.5.5h13v1h-13z" fill="none"/></g><g filter="url(#b)" transform="translate(783 256)"><rect fill="#fff" height="23" rx="3" transform="translate(10 43)" width="64"/></g><g fill="#6a6a6a" stroke="#707070" transform="translate(799 305)"><path d="m0 0h26v2h-26z" stroke="none"/><path d="m.5.5h25v1h-25z" fill="none"/></g><g fill="none" stroke="#215a9c" transform="translate(825 314)"><path d="m0 0h26v2h-26z" stroke="none"/><path d="m.5.5h25v1h-25z" fill="none"/></g><g fill="#6a6a6a" stroke="#707070" transform="translate(799 311)"><path d="m0 0h14v2h-14z" stroke="none"/><path d="m.5.5h13v1h-13z" fill="none"/></g><g clip-path="url(#c)"><g filter="url(#d)" transform="translate(783 256)"><rect fill="#fff" height="15" rx="3" transform="translate(10 74)" width="64"/></g></g></g></g></svg>