<svg viewBox="0 0 590.79 518.17" xmlns="http://www.w3.org/2000/svg"><path d="m117 116.78s6.25 36.28-8 57.67-27.8 29.94-42.77 39.92c-20.27 13.51-28.51 32.42-28.51 57 0 31.37 27.09 45.62 39.92 52.75s45.65 2.88 71.36-12.8 25.67-27.09 27.09-48.47 20.47-55.27 6-93.93-65.09-52.14-65.09-52.14z" fill="#1a335f" transform="translate(-2.59)"/><path d="m236.64 282.09s2.14 37.78 32.08 44.91 52 31 84.83-2.85c24.59-25.38 5-67 5-67s24.92-1.15 24.45-25.08c-.73-37.5-26.6-28.39-31.59-65.46s17.35-36.55 9.26-70.93c-9.51-40.4-56.31-16.76-56.31-16.76z" fill="#1a335f" transform="translate(-2.59)"/><path d="m396.92 518.17c-6.66-17.79-13.35-35.56-19.77-53.43-7.41-20.6-15.41-41.09-20.16-62.48-6.31-28.41-20.48-50.66-46-65.36-10.88-6.25-21.55-12.86-32.78-18.5-1.46-.73-3.05-2.17-4.27.37-1.76.93-2.57 2.65-3.51 4.27a90.55 90.55 0 0 1 -15.82 20.57 29.66 29.66 0 0 1 -24.96 8.39c-13-1.46-25.35-5.14-37.41-10-18.85-7.63-36.71-17.31-54.94-26.23-3.18-1.56-6.26-3.61-10-3.56-5-2.43-9.82-1.12-14.72.46a237.35 237.35 0 0 0 -44 19.12c-11.93 6.65-23.24 14.21-32.28 24.71-12.11 14.05-30 118.2-32.87 144.66-.62 5.67-1.24 11.37-.53 17z" fill="#79a1cf" transform="translate(-2.59)"/><path d="m338 157c-1.44-8.93-2.8-17.95-2.14-27.09-2.38-.2-1.88-2.4-2.24-3.68-3.87-13.7-11.53-24.44-23.91-31.74a55.84 55.84 0 0 1 -12.14-9.72c-4.14-4.36-6.95-9.63-10.34-15.2-2.88 15-31.53 35.3-30.65 29.12.29-.85-.08-1-.82-.78-1.1 1.79-2.11 3.64-3.32 5.34-6 8.41-13.08 15.88-20.05 23.44 0 .43-26.92 13.89-27.9 14.54-9.64 6.43-14 15.74-25.27 18.15-5.08 1.09-4.94 1.06-4 6.44 1.55 8.77 4.17 17.4 3.54 26.47-.12 1.67-.29 3.54-2 4-1.58.39-2.59-1.18-3.3-2.46-2.21-4-4.35-8-6.48-12-3.75-7-8.29-13.42-15-17.89-3.75-2.49-8.22-3.75-11.84-6.53-.38.72-1.06.65-1.72.7-9.26.64-13.27 4.22-15.07 13.46-3.73 19.07 6.18 34.68 25 39.55 4.3 1.11 9.5-.06 12.8 2.08s3.9 7.94 7.19 10.8c5.34 4.63 5.8 9.95 5 16.48-1.77 14.76-4.15 29.32-9.07 43.43-3.28 9.39-8.95 16.12-18.42 19.77-6.32 2.44-12.35 5.64-18.51 8.5 15.55 7.62 31 15.4 46.68 22.81 17.36 8.21 35 15.61 54.36 17.88 10.29 1.21 19.24-1 26.87-8.29a97.22 97.22 0 0 0 18.74-25.77 105.06 105.06 0 0 1 -23-15.56 21.4 21.4 0 0 1 -7.21-14.25c-.35-1.22-12.43-7.78 1.39-.16 2.22.93 4.45 1.82 6.64 2.81 16.38 7.36 31.55 5.89 45.65-5.73 10.14-8.36 18.78-18 24.64-29.72 15.65-31.39 21.46-64.38 15.9-99.2z" fill="#d17b65" transform="translate(-2.59)"/><g fill="#1a335f"><path d="m289.45 12.67c-1.88.33-2.57-.83-3.13-2.33-3.32-9-56.82-18.62-103.16 1.66s-72.7 66.21-66.16 104.78c2.68 15.75 11.68 29.14 23 40.59 1.26 2.87 4 3.86 6.55 4.94 5.83 2.51 10.12 6.68 14 11.56 4.43 5.5 6.63 12.19 10.42 18 1.46 2.24 2.42 5.86 6 4.81s2.58-4.54 2.69-7.27c.31-8-2.07-15.59-3.41-23.34-.84-4.81-.77-4.89 3.84-5.9 5.22-1.14 10.45-2.33 15.32-4.57 41.53-19.1 60.32-56.39 60.15-55.94 2.77 7.43-9.3 30.7-6.47 30.65 26-17.11 35.94-44.33 38.7-59 .75 3.2 2.5 5.63 4.15 8.1 4.7 7 11.14 12.18 18.19 16.66 6.73 4.28 12.62 9.44 16.64 16.47 2.6 4.56 6.73 9 8.87 24.64 2.36-4.12 18.18-51.35 5.08-85s-51.27-39.51-51.27-39.51z" transform="translate(-2.59)"/><path d="m134.09 178c4.07-3.91 8.63-4.07 13.16-1.74 6.65 3.42 9.21 9.36 9.71 16.67-2.81-.62-2.47-5.5-6.29-4-3.64 1.41-3.55 4.89-4.33 8-1.63-5.63-1.11-7.66 3.53-10.38 1.89-1.12 1.27-1.88.49-3-2.34-3.35-5.41-5.45-9.62-5.5-2.22-.05-4.44-.05-6.65-.05z" transform="translate(-2.59)"/><path d="m283.12 215.44a2.48 2.48 0 0 1 -2.12-1.24 2.51 2.51 0 0 1 .91-3.42l17.72-10.26c-2.72-10-8.7-31.43-10.58-35.5-1.24-2.7-.7-6.1 1.53-9.58 3-4.75 9.6-9.87 16.82-9.87 14.92 0 19.86 9.53 20.06 9.94a2.5 2.5 0 0 1 -4.46 2.25c-.18-.33-3.94-7.19-15.6-7.19-5.1 0-10.2 3.81-12.61 7.57-1.22 1.9-1.68 3.74-1.19 4.78 2.59 5.62 11 36.83 11.36 38.15l.5 1.85-21 12.19a2.5 2.5 0 0 1 -1.34.33z" transform="translate(-2.59)"/><path d="m233.37 159.46a2.46 2.46 0 0 1 -1.32-.38 2.5 2.5 0 0 1 -.8-3.44c3-4.85 9.6-10.07 16.94-10.07 14.92 0 19.86 9.53 20.06 9.94a2.5 2.5 0 0 1 -4.46 2.25c-.18-.33-3.94-7.19-15.6-7.19-5.13 0-10.37 4-12.7 7.71a2.5 2.5 0 0 1 -2.12 1.18z" transform="translate(-2.59)"/><path d="m274.21 243c-7.76 0-15.21-3.17-22.23-9.48a2.5 2.5 0 1 1 3.34-3.72c7.81 7 15.79 9.5 24.36 7.58a2.5 2.5 0 1 1 1.09 4.88 30.13 30.13 0 0 1 -6.56.74z" transform="translate(-2.59)"/><circle cx="305.34" cy="167.61" r="7.14"/><circle cx="246.87" cy="167.61" r="7.14"/><path d="m192.13 410-1.38-.31c-15.14-3.41-31.91-13.39-47.23-28.1-17-16.34-31.27-37.51-41.23-61.24a2.51 2.51 0 0 1 4.62-1.94c14.82 35.34 47.17 77 83.57 86.08l26.16-27.38a2.5 2.5 0 0 1 3.62 3.45z" transform="translate(-2.59)"/><path d="m261.24 405.85-22.18-24.29a2.5 2.5 0 0 1 3.69-3.37l19.12 20.94c6.49-5.46 29.27-27.45 31.21-68.18a2.5 2.5 0 1 1 5 .24c-2.37 49.85-33.7 72.45-35 73.39z" transform="translate(-2.59)"/><path d="m262.66 302.77a2.61 2.61 0 0 1 -.94-.18c-27.43-11-54.13-31.13-54.39-31.34a2.5 2.5 0 1 1 3-4c.27.2 26.45 19.89 53.25 30.68a2.5 2.5 0 0 1 -.93 4.82z" transform="translate(-2.59)"/><path d="m87.1 451.11c-14.1-54.24-36.42-68.51-37.36-69.11a2.5 2.5 0 0 0 -2.63 4.25s5.42 3.48 12.4 13.28c6.46 9.08 15.66 25.62 22.75 52.82 6.08 23.31 9.26 46.78 10.91 65.8h5c-1.65-19.32-4.87-43.26-11.07-67.04z" transform="translate(-2.59)"/><path d="m234.81 518.17v-147.27a2.5 2.5 0 0 0 -5 0v147.27z" transform="translate(-2.59)"/><path d="m325.39 462.25c-5.56-70.92 6.77-98.27 6.9-98.54a2.5 2.5 0 0 0 -4.53-2.13c-.53 1.13-13.05 28.52-7.36 101.06 2 25.18 3.44 43 4.5 55.53h5c-1.05-12.58-2.52-30.51-4.51-55.92z" transform="translate(-2.59)"/></g><path d="m590.68 331.36c-1.52-4.35-10.57-6-10.57-6s-2.19-8.43-6.6-9.45-9.4-1.72-28 .29c-19 2-45.06 2.92-45.06 2.92s33.81-3.18 37.07-9.74 1.18-4.66-1-8.08c-3.21-5.17-25.66-2.85-50.37 4.28-13.64-1.34-13.92-.85-26.38.95-9.77 1.41-15.13 9.3-22.34 15.21-10.05 8.23-31.67 49.91-40.39 73.73-6.17 9.38-37.17 80.84-57.36 122.54h77.32s31-134.21 37.82-139.01c15.92-25.3 21.27-16.09 63.44-19.24 8.88-2.07 52-4.79 59.89-10.7 10-7.48 4.94-9.17 4.94-9.17s9.7-2.48 7.59-8.53z" fill="#d17b65" transform="translate(-2.59)"/><path d="m399.21 392.87a2.37 2.37 0 0 1 -1-.23 2.5 2.5 0 0 1 -1.24-3.31c12.79-28 23.27-47.8 33-62.37 13.28-19.92 26.52-26.55 50.59-25.35 11.32-.23 22.81-2 32.05-3.34 10.82-1.62 18.63-2.8 22.54-1.23a10.34 10.34 0 0 1 5.65 5.81 8.24 8.24 0 0 1 0 6.61c-4.15 8.76-25.64 11.39-25.85 11.4a2.5 2.5 0 0 1 -.34-5c3.6-.24 19.32-3.58 21.67-8.55a3.41 3.41 0 0 0 -.09-2.65 5.37 5.37 0 0 0 -2.85-3c-2.65-1.06-11 .2-20 1.53-9.4 1.41-21.11 3.17-32.78 3.4h-.17c-22.32-1.13-34 4.7-46.27 23.13-9.57 14.34-19.92 33.94-32.6 61.67a2.5 2.5 0 0 1 -2.31 1.48z" fill="#1a335f" transform="translate(-2.59)"/><path d="m580.28 343a2.5 2.5 0 0 1 -.17-5c3.85-.28 6.78-1.47 7.84-3.2a3.51 3.51 0 0 0 0-3.33c-.62-1.46-5.46-3-9.38-3.47l-4.82-.53 3.23-3.62a2.37 2.37 0 0 0 .48-1.66c-.16-1.06-1.32-2-2.26-2.62-4-2.57-11.51-1.81-28.08-.16-5 .5-10.74 1.07-17.51 1.67h-.1a150.6 150.6 0 0 1 -22.07-.53c-2.13-.18-4-.34-5.65-.39a2.5 2.5 0 1 1 .14-5c1.83 0 3.73.21 5.94.4a143.2 143.2 0 0 0 21.35.51c6.72-.59 12.39-1.15 17.4-1.65 18.31-1.83 25.89-2.58 31.31.94 2.66 1.73 4.18 3.81 4.49 6.18a6.71 6.71 0 0 1 0 2c3.56.76 8.69 2.44 10.17 6a8.31 8.31 0 0 1 -.36 7.88c-2 3.18-6.13 5.16-11.75 5.56z" fill="#1a335f" transform="translate(-2.59)"/><path d="m527.58 331c-2.19 0-4.29-.05-6.25-.16a2.5 2.5 0 0 1 .29-5c10.34.59 24.76-.63 37.49-1.7 7.3-.62 14.19-1.21 19.15-1.33a2.5 2.5 0 0 1 .13 5c-4.82.12-11.64.7-18.86 1.31-10.53.88-22.2 1.88-31.95 1.88z" fill="#1a335f" transform="translate(-2.59)"/><path d="m451.25 386.45a2.49 2.49 0 0 1 -2.16-3.75c9.9-17.15 19-23.82 34.7-25.47 3.87-.41 24.7-.91 29.4-.37 5.42.63 20.22-2 28.84-3.86 8.21-1.81 15.37-2.81 21.13-3.61 8-1.13 15-2.1 15.36-4.31a3.87 3.87 0 0 0 -.87-3.49c-2-2.18-6.91-3.1-13.47-2.52-6.73.59-30.11 1.75-49.15 1.76-2.78.67-5.29-.42-8.43-1.77-4.82-2.09-12.11-5.24-25.88-3.94a2.52 2.52 0 0 1 -2.73-2.26 2.49 2.49 0 0 1 2.26-2.72c15.05-1.42 23 2 28.34 4.33 2.77 1.19 4.27 1.8 5.4 1.46l.35-.1h.36c19.33 0 43.14-1.22 49-1.74 8.35-.74 14.43.68 17.59 4.12a8.78 8.78 0 0 1 2.12 7.73c-1 5.8-8 6.78-19.59 8.4-5.68.79-12.74 1.78-20.76 3.54-.9.2-22.35 4.89-30.48 3.95-4-.46-24.42 0-28.31.37-12.16 1.28-20.69 5.33-30.89 23a2.5 2.5 0 0 1 -2.13 1.25z" fill="#1a335f" transform="translate(-2.59)"/><path d="m420.13 506.46a2.18 2.18 0 0 1 -.61-.08 2.49 2.49 0 0 1 -1.81-3l21.85-87.21a2.5 2.5 0 1 1 4.85 1.21l-21.86 87.22a2.5 2.5 0 0 1 -2.42 1.86z" fill="#1a335f" transform="translate(-2.59)"/></svg>