<?xml version="1.0" encoding="utf-8"?>
<!-- Generator: Adobe Illustrator 15.0.0, SVG Export Plug-In . SVG Version: 6.00 Build 0)  -->
<!DOCTYPE svg PUBLIC "-//W3C//DTD SVG 1.1//EN" "http://www.w3.org/Graphics/SVG/1.1/DTD/svg11.dtd">
<svg version="1.1" id="Calque_1" xmlns="http://www.w3.org/2000/svg" xmlns:xlink="http://www.w3.org/1999/xlink" x="0px" y="0px"
	 width="26.75px" height="1500px" viewBox="0 -365.264 26.75 1500" enable-background="new 0 -365.264 26.75 1500"
	 xml:space="preserve">
<g>
	<path fill="#FFFFFF" d="M21.375-356.5c0-4.418-3.582-8-8-8s-8,3.582-8,8s3.582,8,8,8S21.375-352.082,21.375-356.5z M6.875-356.5
		c0-3.59,2.91-6.5,6.5-6.5s6.5,2.91,6.5,6.5s-2.91,6.5-6.5,6.5S6.875-352.91,6.875-356.5z"/>
	<path fill="#FFFFFF" d="M10.332-358.957l-1.414,1.414l4.457,4.457l4.457-4.457l-1.414-1.414l-3.043,3.043L10.332-358.957z"/>
</g>
<g>
	<path fill="#FFFFFF" d="M5.375-232.957c0,4.418,3.582,8,8,8s8-3.582,8-8s-3.582-8-8-8S5.375-237.375,5.375-232.957z
		 M19.875-232.957c0,3.59-2.91,6.5-6.5,6.5s-6.5-2.91-6.5-6.5s2.91-6.5,6.5-6.5S19.875-236.547,19.875-232.957z"/>
	<path fill="#FFFFFF" d="M16.418-230.5l1.414-1.414l-4.457-4.457l-4.457,4.457l1.414,1.414l3.043-3.043L16.418-230.5z"/>
</g>
<g>
	<circle fill="#2E3135" cx="13.375" cy="131.301" r="13"/>
	<path fill="#FFFFFF" d="M8.52,128.074l-2.256,2.256l7.112,7.112l7.111-7.112l-2.256-2.256l-4.855,4.855L8.52,128.074z"/>
</g>
<g>
	<circle fill="#2E3135" cx="13.375" cy="310.806" r="13"/>
	<path fill="#FFFFFF" d="M13.375,309.177l4.855,4.855l2.256-2.256l-7.111-7.112l-7.112,7.112l2.256,2.256L13.375,309.177z"/>
</g>
<g>
	<circle fill="#2E3135" cx="13.375" cy="493.236" r="13"/>
	<path fill="#FFFFFF" d="M15.004,493.236l-4.855,4.855l2.256,2.256l7.112-7.111l-7.112-7.112l-2.256,2.257L15.004,493.236z"/>
</g>
<g>
	<circle fill="#2E3135" cx="13.375" cy="673.245" r="13"/>
	<path fill="#FFFFFF" d="M16.602,668.39l-2.256-2.257l-7.112,7.112l7.112,7.111l2.256-2.256l-4.855-4.855L16.602,668.39z"/>
</g>
<g>
	<circle fill="#2E3135" cx="13.375" cy="853.236" r="13"/>
	<path fill="#FFFFFF" d="M18.004,853.236l-4.855,4.855l2.256,2.256l7.112-7.111l-7.112-7.112l-2.256,2.257L18.004,853.236z"/>
	<path fill="#FFFFFF" d="M12.004,853.236l-4.855,4.855l2.256,2.256l7.112-7.111l-7.112-7.112l-2.256,2.257L12.004,853.236z"/>
</g>
<g>
	<circle fill="#2E3135" cx="13.375" cy="1033.245" r="13"/>
	<path fill="#FFFFFF" d="M14.602,1028.39l-2.256-2.257l-7.112,7.112l7.112,7.111l2.256-2.256l-4.855-4.855L14.602,1028.39z"/>
	<path fill="#FFFFFF" d="M20.602,1028.39l-2.256-2.257l-7.112,7.112l7.112,7.111l2.256-2.256l-4.855-4.855L20.602,1028.39z"/>
</g>
<g>
	<path fill="#FFFFFF" d="M13.375-119.957c-4.418,0-8,3.582-8,8s3.582,8,8,8s8-3.582,8-8S17.793-119.957,13.375-119.957z
		 M13.375-105.457c-3.59,0-6.5-2.91-6.5-6.5s2.91-6.5,6.5-6.5s6.5,2.91,6.5,6.5S16.965-105.457,13.375-105.457z"/>
	<path fill="#FFFFFF" d="M10.918-108.914l1.414,1.414l4.457-4.457l-4.457-4.457L10.918-115l3.043,3.043L10.918-108.914z"/>
</g>
<g>
	<path fill="#FFFFFF" d="M5.375,9.043c0,4.418,3.582,8,8,8s8-3.582,8-8s-3.582-8-8-8S5.375,4.625,5.375,9.043z M6.875,9.043
		c0-3.59,2.91-6.5,6.5-6.5s6.5,2.91,6.5,6.5s-2.91,6.5-6.5,6.5S6.875,12.633,6.875,9.043z"/>
	<path fill="#FFFFFF" d="M12.789,9.043L15.832,6l-1.414-1.414L9.961,9.043l4.457,4.457l1.414-1.414L12.789,9.043z"/>
</g>
</svg>
