<?xml version="1.0" encoding="utf-8"?>
<!-- Generator: Adobe Illustrator 15.0.0, SVG Export Plug-In . SVG Version: 6.00 Build 0)  -->
<!DOCTYPE svg PUBLIC "-//W3C//DTD SVG 1.1//EN" "http://www.w3.org/Graphics/SVG/1.1/DTD/svg11.dtd">
<svg version="1.1" id="Calque_1" xmlns="http://www.w3.org/2000/svg" xmlns:xlink="http://www.w3.org/1999/xlink" x="0px" y="0px"
	 width="65px" height="65px" viewBox="0 0 65 65" enable-background="new 0 0 65 65" xml:space="preserve">
<circle fill="#50C2BA" cx="32.573" cy="32.661" r="31.832"/>
<path fill="#FFFFFF" d="M57,39c0,1.104-0.896,2-2,2H11c-1.104,0-2-0.896-2-2V22c0-1.104,0.896-2,2-2h44c1.104,0,2,0.896,2,2V39z"/>
<polygon fill="#FFFFFF" points="25,46 40,46 32.5,53.924 "/>
<g>
	<rect x="12" y="23" fill="#50C2BA" width="3" height="3"/>
	<rect x="16" y="23" fill="#50C2BA" width="3" height="3"/>
	<rect x="20" y="23" fill="#50C2BA" width="3" height="3"/>
	<rect x="24" y="23" fill="#50C2BA" width="3" height="3"/>
	<rect x="28" y="23" fill="#50C2BA" width="3" height="3"/>
	<rect x="32" y="23" fill="#50C2BA" width="3" height="3"/>
	<rect x="36" y="23" fill="#50C2BA" width="3" height="3"/>
	<rect x="40" y="23" fill="#50C2BA" width="3" height="3"/>
	<rect x="44" y="23" fill="#50C2BA" width="3" height="3"/>
	<rect x="48" y="23" fill="#50C2BA" width="3" height="3"/>
	<rect x="52" y="23" fill="#50C2BA" width="3" height="3"/>
</g>
<g>
	<rect x="12" y="27" fill="#50C2BA" width="3" height="3"/>
	<rect x="16" y="27" fill="#50C2BA" width="3" height="3"/>
	<rect x="20" y="27" fill="#50C2BA" width="3" height="3"/>
	<rect x="24" y="27" fill="#50C2BA" width="3" height="3"/>
	<rect x="28" y="27" fill="#50C2BA" width="3" height="3"/>
	<rect x="32" y="27" fill="#50C2BA" width="3" height="3"/>
	<rect x="36" y="27" fill="#50C2BA" width="3" height="3"/>
	<rect x="40" y="27" fill="#50C2BA" width="3" height="3"/>
	<rect x="44" y="27" fill="#50C2BA" width="3" height="3"/>
	<rect x="48" y="27" fill="#50C2BA" width="3" height="3"/>
	<rect x="52" y="27" fill="#50C2BA" width="3" height="3"/>
</g>
<g>
	<rect x="12" y="31" fill="#50C2BA" width="3" height="3"/>
	<rect x="16" y="31" fill="#50C2BA" width="3" height="3"/>
	<rect x="20" y="31" fill="#50C2BA" width="3" height="3"/>
	<rect x="24" y="31" fill="#50C2BA" width="3" height="3"/>
	<rect x="28" y="31" fill="#50C2BA" width="3" height="3"/>
	<rect x="32" y="31" fill="#50C2BA" width="3" height="3"/>
	<rect x="36" y="31" fill="#50C2BA" width="3" height="3"/>
	<rect x="40" y="31" fill="#50C2BA" width="3" height="3"/>
	<rect x="44" y="31" fill="#50C2BA" width="3" height="3"/>
	<rect x="48" y="31" fill="#50C2BA" width="3" height="3"/>
	<rect x="52" y="31" fill="#50C2BA" width="3" height="3"/>
</g>
<g>
	<rect x="12" y="35" fill="#50C2BA" width="3" height="3"/>
	<rect x="16" y="35" fill="#50C2BA" width="3" height="3"/>
	<rect x="20" y="35" fill="#50C2BA" width="3" height="3"/>
	<rect x="24" y="35" fill="#50C2BA" width="19" height="3"/>
	<rect x="44" y="35" fill="#50C2BA" width="3" height="3"/>
	<rect x="48" y="35" fill="#50C2BA" width="3" height="3"/>
	<rect x="52" y="35" fill="#50C2BA" width="3" height="3"/>
</g>
</svg>
