<?xml version="1.0" encoding="utf-8"?>
<!-- Generator: Adobe Illustrator 15.0.0, SVG Export Plug-In . SVG Version: 6.00 Build 0)  -->
<!DOCTYPE svg PUBLIC "-//W3C//DTD SVG 1.1//EN" "http://www.w3.org/Graphics/SVG/1.1/DTD/svg11.dtd">
<svg version="1.1" id="Calque_1" xmlns="http://www.w3.org/2000/svg" xmlns:xlink="http://www.w3.org/1999/xlink" x="0px" y="0px"
	 width="27px" height="1954px" viewBox="-0.125 0.25 27 1954" enable-background="new -0.125 0.25 27 1954" xml:space="preserve">
<g>
	<path fill="#FFFFFF" d="M21.375-356.5c0-4.418-3.582-8-8-8s-8,3.582-8,8s3.582,8,8,8S21.375-352.082,21.375-356.5z M6.875-356.5
		c0-3.59,2.91-6.5,6.5-6.5s6.5,2.91,6.5,6.5s-2.91,6.5-6.5,6.5S6.875-352.91,6.875-356.5z"/>
	<path fill="#FFFFFF" d="M10.332-358.957l-1.414,1.414l4.457,4.457l4.457-4.457l-1.414-1.414l-3.043,3.043L10.332-358.957z"/>
</g>
<g>
	<path fill="#FFFFFF" d="M5.375-232.957c0,4.418,3.582,8,8,8s8-3.582,8-8s-3.582-8-8-8S5.375-237.375,5.375-232.957z
		 M19.875-232.957c0,3.59-2.91,6.5-6.5,6.5s-6.5-2.91-6.5-6.5s2.91-6.5,6.5-6.5S19.875-236.547,19.875-232.957z"/>
	<path fill="#FFFFFF" d="M16.418-230.5l1.414-1.414l-4.457-4.457l-4.457,4.457l1.414,1.414l3.043-3.043L16.418-230.5z"/>
</g>
<g>
	<circle fill="#2E3135" cx="13.375" cy="131.301" r="13"/>
	<path fill="#FFFFFF" d="M8.52,128.074l-2.256,2.256l7.112,7.112l7.11-7.112l-2.256-2.256l-4.854,4.854L8.52,128.074z"/>
</g>
<g>
	<circle fill="#2E3135" cx="13.375" cy="310.806" r="13"/>
	<path fill="#FFFFFF" d="M13.375,309.177l4.855,4.855l2.256-2.256l-7.111-7.112l-7.112,7.112l2.256,2.256L13.375,309.177z"/>
</g>
<g>
	<circle fill="#2E3135" cx="13.375" cy="493.236" r="13"/>
	<path fill="#FFFFFF" d="M15.004,493.236l-4.855,4.854l2.256,2.256l7.113-7.11l-7.113-7.112l-2.256,2.257L15.004,493.236z"/>
</g>
<g>
	<circle fill="#2E3135" cx="13.375" cy="673.245" r="13"/>
	<path fill="#FFFFFF" d="M16.602,668.39l-2.256-2.257l-7.112,7.112l7.112,7.111l2.256-2.257l-4.854-4.854L16.602,668.39z"/>
</g>
<g>
	<circle fill="#2E3135" cx="13.375" cy="853.236" r="13"/>
	<path fill="#FFFFFF" d="M18.004,853.236l-4.855,4.854l2.255,2.256l7.113-7.11l-7.113-7.112l-2.255,2.257L18.004,853.236z"/>
	<path fill="#FFFFFF" d="M12.004,853.236l-4.855,4.854l2.256,2.256l7.113-7.11l-7.113-7.112l-2.256,2.257L12.004,853.236z"/>
</g>
<g>
	<circle fill="#2E3135" cx="13.375" cy="1033.245" r="13"/>
	<path fill="#FFFFFF" d="M14.602,1028.39l-2.255-2.257l-7.112,7.112l7.112,7.111l2.255-2.257l-4.854-4.854L14.602,1028.39z"/>
	<path fill="#FFFFFF" d="M20.602,1028.39l-2.256-2.257l-7.112,7.112l7.112,7.111l2.256-2.257l-4.854-4.854L20.602,1028.39z"/>
</g>
<g>
	<path fill="#FFFFFF" d="M13.375-119.957c-4.418,0-8,3.582-8,8s3.582,8,8,8s8-3.582,8-8S17.793-119.957,13.375-119.957z
		 M13.375-105.457c-3.59,0-6.5-2.91-6.5-6.5s2.91-6.5,6.5-6.5s6.5,2.91,6.5,6.5S16.965-105.457,13.375-105.457z"/>
	<path fill="#FFFFFF" d="M10.918-108.914l1.414,1.414l4.457-4.457l-4.457-4.457L10.918-115l3.043,3.043L10.918-108.914z"/>
</g>
<g>
	<path fill="#FFFFFF" d="M5.375,9.043c0,4.418,3.582,8,8,8s8-3.582,8-8s-3.582-8-8-8S5.375,4.625,5.375,9.043z M6.875,9.043
		c0-3.59,2.91-6.5,6.5-6.5s6.5,2.91,6.5,6.5s-2.91,6.5-6.5,6.5S6.875,12.633,6.875,9.043z"/>
	<path fill="#FFFFFF" d="M12.789,9.043L15.832,6l-1.414-1.414L9.961,9.043l4.457,4.457l1.414-1.414L12.789,9.043z"/>
</g>
<polygon fill="#FFFFFF" points="15.635,1163.3 15.635,1166.995 5.677,1166.995 5.677,1170.5 15.635,1170.5 15.635,1174.177 
	21.072,1168.738 "/>
<polygon fill="#FFFFFF" points="11.115,1284.3 11.115,1287.995 21.072,1287.995 21.072,1291.5 11.115,1291.5 11.115,1295.177 
	5.678,1289.738 "/>
<polygon fill="#FFFFFF" points="7.937,1430.998 11.632,1430.998 11.632,1421.041 15.137,1421.041 15.137,1430.998 18.813,1430.998 
	13.375,1436.436 "/>
<polygon fill="#FFFFFF" points="7.937,1567.479 11.632,1567.479 11.632,1577.436 15.137,1577.436 15.137,1567.479 18.813,1567.479 
	13.375,1562.041 "/>
<polygon fill="#FFFFFF" points="7.847,1701.5 18.903,1701.5 13.375,1707.781 "/>
<polygon fill="#FFFFFF" points="7.847,1828.781 18.903,1828.781 13.375,1822.5 "/>
<g>
	<path fill="#595857" d="M23.377,1948.284c0,2.742-2.225,4.966-4.967,4.966h-8.071c-2.742,0-4.966-2.224-4.966-4.966v-32.771
		c0-2.743,2.224-4.966,4.966-4.966h8.071c2.742,0,4.967,2.223,4.967,4.966V1948.284z"/>
	<path fill="#E2A037" d="M21.377,1946.284c0,2.742-2.225,4.966-4.967,4.966H8.339c-2.742,0-4.966-2.224-4.966-4.966v-32.771
		c0-2.743,2.224-4.966,4.966-4.966h8.071c2.742,0,4.967,2.223,4.967,4.966V1946.284z"/>
</g>
</svg>
