<svg enable-background="new 0 0 428.4 364.6" viewBox="0 0 428.4 364.6" xmlns="http://www.w3.org/2000/svg" xmlns:xlink="http://www.w3.org/1999/xlink"><linearGradient id="a" gradientTransform="matrix(397.9833 -168.9593 -134.6715 -317.2187 302972.3438 832405.1875)" gradientUnits="userSpaceOnUse" x1="106.2592" x2="106.3772" y1="2560.6931" y2="2559.9353"><stop offset="0" stop-color="#ebf4fb"/><stop offset="1" stop-color="#fff"/></linearGradient><g transform="translate(-191.028 -1967)"><path d="m456.7 1967.1c-72.8 3.1-97.4 54.4-133 84.1s-65.2.9-114.3 56.6-5.3 234.6 196.8 223.3 223.2-148.8 210.1-228.9c-13-80.1-86.8-138.2-159.6-135.1z" fill="url(#a)"/><ellipse cx="547.4" cy="2058.8" fill="none" rx="28.4" ry="28.4"/><ellipse cx="547.4" cy="2058.8" fill="none" rx="27.4" ry="27.4" stroke="#e9d047" stroke-width="2"/><g transform="matrix(.95630476 .2923717 -.2923717 .95630476 484.309 2068.86)"><path d="m-54.5-29.9h103.9c1.7 0 3 1.3 3 3v108.5h-106.9c-1.7 0-3-1.3-3-3v-105.5c0-1.7 1.4-3 3-3z" fill="#79a1d0"/><g fill="#fff"><path d="m-35.5 67.5v-81.7h3v81.7z"/><path d="m27.3 65.9v-51.8h3v51.8z"/><path d="m52.5 14.1h-86.4v-3h86.4z"/><path d="m52.5-14.2h-109.9v-3h109.9z"/><path d="m52.5 68.9h-109.9v-4.1h109.9z"/></g></g><path d="m406.5 2011.1h56.6c.6 0 1 .4 1 1v94.1c0 .6-.4 1-1 1h-56.6c-.6 0-1-.4-1-1v-94.1c0-.6.4-1 1-1z" fill="none"/><path d="m406.5 2010.1h56.6c1.1 0 2 .9 2 2v94.1c0 1.1-.9 2-2 2h-56.6c-1.1 0-2-.9-2-2v-94.1c0-1.1.9-2 2-2z" fill="none" stroke="#aac3c8" stroke-dasharray="7" stroke-width="2"/><path d="m357.6 2089.1h115.8c.6 0 1 .4 1 1v27.8c0 .6-.4 1-1 1h-115.8c-.6 0-1-.4-1-1v-27.8c0-.5.4-1 1-1z" fill="#185a6a"/><path d="m369.1 2101.7h47.1v3h-47.1z" fill="#fff"/><g fill="none"><path d="m463.4 2098.1-11.1 11.1" stroke="#fff" stroke-width="2"/><path d="m452.3 2098.1 11.1 11.1" stroke="#fff" stroke-width="2"/><g stroke-miterlimit="4.0021" stroke-width="2.001" transform="matrix(.995 .105 -.105 .995 541.432 2205.725)"><path d="m-50.7-40.3 83 83" stroke="#aac3c8"/><path d="m-2-23.5 83 83" stroke="#e9d047"/></g></g><g transform="matrix(.99026807 -.1391731 .1391731 .99026807 323.085 2092.01)"><path d="m-36.5-51.4h101.3c1.7 0 3 1.3 3 3v23.2h-107.3v-23.2c0-1.6 1.4-3 3-3z" fill="#215a9c"/><path d="m-39.5-25.2h107.3v75.6c0 1.7-1.3 3-3 3h-101.3c-1.7 0-3-1.3-3-3z" fill="#fff"/><path d="m-29.3-40.6h44v3h-44z" fill="#fff"/><path d="m-28.9-15.1h29.9v3h-29.9z" fill="#215a9c"/><path d="m-39.3-2.2h107.8v17.5h-107.8z" fill="#d0e0f0"/><path d="m-29.3 23.3h39.8v3.7h-39.8z" fill="#215a9c"/><g fill="#79a1d0"><path d="m-29.3 4.9h39.8v3h-39.8z"/><path d="m-29.3 39.1h38.4v3.7h-38.4z"/></g></g><path d="m279.7 2113.5h166.4v150.5h-166.4z" fill="#e1ecf7"/><path d="m446.1 2113.5h95.2v150.5h-95.2z" fill="#fff"/><ellipse cx="269" cy="2273.4" fill="none" rx="42.2" ry="42.2"/><ellipse cx="269" cy="2273.4" fill="none" rx="41.2" ry="41.2" stroke="#aac3c8" stroke-dasharray="7" stroke-width="2"/><circle cx="361.8" cy="2202.6" fill="#fff" r="27"/><path d="m361.5 2178.2c13.7 0 24.8 11.1 24.8 24.8s-11.1 24.8-24.8 24.8-24.8-11.1-24.8-24.8c-.1-13.6 11-24.7 24.8-24.8zm0-4.7c-16.4 0-29.6 13.3-29.6 29.6s13.3 29.6 29.6 29.6 29.6-13.3 29.6-29.6c0-16.4-13.3-29.6-29.6-29.6zm0 6.7c-12.7 0-22.9 10.3-22.9 22.9s10.3 22.9 22.9 22.9 22.9-10.3 22.9-22.9-10.2-22.9-22.9-22.9zm0 5.2c2.4 0 4.3 1.9 4.3 4.3s-1.9 4.3-4.3 4.3-4.3-1.9-4.3-4.3c0-2.4 1.9-4.3 4.3-4.3zm14.1 11.7c-3.2.8-6.5 1.5-9.8 1.9.1 12.1 1.5 14.7 3 18.6.4 1.1-.1 2.4-1.2 2.8s-2.4-.1-2.8-1.2c-1.3-3-2.2-6.1-2.7-9.4h-1.2c-.4 3.2-1.3 6.4-2.7 9.4-.4 1.1-1.7 1.7-2.8 1.2s-1.7-1.7-1.2-2.8c1.5-3.9 2.9-6.5 3-18.6-3.3-.4-6.6-1.1-9.8-1.9-1-.2-1.7-1.2-1.5-2.2s1.2-1.7 2.2-1.5h.1c11.5 2.7 14.8 2.7 26.4 0 1-.2 2.1.4 2.3 1.4.3 1.1-.3 2.1-1.3 2.3z" fill="#185a6a"/><path d="m274.1 2113.5h172l-26.6 48.8h-172z" fill="#79a1d0"/><path d="m495.8 2113.5v152.2" fill="none" stroke="#e1ecf7" stroke-width="3"/></g></svg>