<svg enable-background="new 0 0 443.5 361.8" viewBox="0 0 443.5 361.8" xmlns="http://www.w3.org/2000/svg" xmlns:xlink="http://www.w3.org/1999/xlink"><linearGradient id="a" gradientTransform="matrix(-336.4117 -262.9818 -189.3019 242.1589 696005.1875 -296496.1562)" gradientUnits="userSpaceOnUse" x1="851.8461" x2="851.8792" y1="2156.7217" y2="2155.9067"><stop offset="0" stop-color="#ebf4fb"/><stop offset="1" stop-color="#fff"/></linearGradient><g transform="translate(-930.617 -1566.051)"><path d="m1154.9 1574c67.2 23.5 79.7 75.9 106.8 112.3s60.5 19.4 95 82.7-42.4 209.1-228.2 141.4-177.8-195.4-149.4-262.5 108.6-97.5 175.8-73.9z" fill="url(#a)"/><path d="m1269.3 1838.4 60.3 60.3" fill="none" stroke="#aac3c8" stroke-width="2"/><path d="m1304.7 1850.5 60.3 60.3" fill="none" stroke="#e9d047" stroke-width="2"/><path d="m982 1670.8h257.3v193.4c0 1.7-1.3 3-3 3h-251.3c-1.7 0-3-1.3-3-3z" fill="#e1ecf7"/><path d="m993.4 1654.4h257.3v193.4c0 1.7-1.3 3-3 3h-251.3c-1.7 0-3-1.3-3-3z" fill="#fff"/><path d="m971.3 1615.7h81.7c.6 0 1 .4 1 1v67.7c0 .6-.4 1-1 1h-81.7c-.6 0-1-.4-1-1v-67.7c0-.5.4-1 1-1z" fill="none"/><path d="m971.3 1614.7h81.7c1.1 0 2 .9 2 2v67.7c0 1.1-.9 2-2 2h-81.7c-1.1 0-2-.9-2-2v-67.7c0-1.1.9-2 2-2z" fill="none" stroke="#aac3c8" stroke-dasharray="7" stroke-width="2"/><ellipse cx="1339.7" cy="1741.7" fill="none" rx="34.5" ry="34.5"/><ellipse cx="1339.7" cy="1741.7" fill="none" rx="33.5" ry="33.5" stroke="#aac3c8" stroke-dasharray="7" stroke-width="2"/><path d="m1009.7 1636h207.4c.6 0 1 .4 1 1v55.1c0 .6-.4 1-1 1h-207.4c-.6 0-1-.4-1-1v-55.1c0-.5.4-1 1-1z" fill="#215a9c"/><path d="m1055.9 1648.9h94v3h-94z" fill="#fff"/><path d="m1092.9 1664.9h115v3h-115z" fill="#fff"/><path d="m1167.9 1648.9h40v3h-40z" fill="#fff"/><path d="m1023.9 1648.9h28v3h-28z" fill="#fff"/><path d="m1053.9 1664.9h27v3h-27z" fill="#fff"/><path d="m1010.6 1704.7h205.5c.6 0 1 .4 1 1v82.5c0 .6-.4 1-1 1h-205.5c-.6 0-1-.4-1-1v-82.5c0-.5.5-1 1-1z" fill="#e1ecf7"/><g fill="#215a9c"><path d="m1059.9 1735.9h96v3h-96z"/><path d="m1089.9 1767.9h118v3h-118z"/><path d="m1080.9 1719.9h127v3h-127z"/><path d="m1123.9 1750.9h84v3h-84z"/><path d="m1018.9 1735.9h27v3h-27z"/><path d="m1020.9 1750.9h92v3h-92z"/><path d="m1165.9 1735.9h42v3h-42z"/></g><text fill="#185a6a" font-family="'ArialRoundedMTBold'" font-size="26" letter-spacing="4" transform="matrix(-1 0 0 1 1238.6964 1899.6008)">&lt;/&gt;</text><path d="m1234.4 1636h53.9c.6 0 1 .4 1 1v147.5c0 .6-.4 1-1 1h-53.9c-.6 0-1-.4-1-1v-147.5c0-.5.4-1 1-1z" fill="#185a6a"/><path d="m1245.9 1662.9h33v3h-33z" fill="#fff"/><path d="m1245.9 1690.9h33v3h-33z" fill="#fff"/><path d="m1245.9 1649.9h33v3h-33z" fill="#fff"/><path d="m1157.1 1801.9h59c.6 0 1 .4 1 1v21.1c0 .6-.4 1-1 1h-59c-.6 0-1-.4-1-1v-21.1c0-.6.4-1 1-1z" fill="#215a9c"/><path d="m1167.4 1811.4h37.6v4.1h-37.6z" fill="#fff"/><path d="m1245.3 1678.9h32.8l33.4-20.8h18.5" fill="none" stroke="#e9d047" stroke-width="3"/><path d="m1217.1 1832.3h-61.5l-42.5 27.4h-13.7" fill="none" stroke="#e9d047" stroke-width="3"/><path d="m1078.6 1768.4h-61.5l-52.4-58h-16.4" fill="none" stroke="#e9d047" stroke-width="3"/><path d="m934.4 1673.9h36.6c2.1 0 3.8 1.7 3.8 3.8v34.2l-7.6-7.6h-32.8c-2.1 0-3.8-1.7-3.8-3.8v-22.8c0-2.1 1.7-3.8 3.8-3.8z" fill="#215a9c"/><path d="m954.5 1681.3c-.3.1-.5.4-.5.7v12.4c0 .3.2.6.5.7h.3c.2 0 .4-.1.5-.2l3.8-3.8h3c.4 0 .7-.3.7-.7 0 0 0 0 0-.1v-4.4c0-.4-.3-.7-.7-.7 0 0 0 0-.1 0h-3l-3.8-3.8c-.1-.2-.5-.3-.7-.1zm-9.6 15.7c-.4 0-.9-.2-1.1-.5-3.9-4.8-3.9-11.7 0-16.6.2-.3.6-.5 1-.5.4-.1.8.1 1.1.3s.5.6.5 1-.1.8-.3 1.1c-3 3.8-3 9.1 0 12.9.3.3.4.7.3 1.1 0 .4-.2.7-.5 1-.3.1-.6.2-1 .2zm4.9-3.4c-.4 0-.8-.2-1.1-.5-2.6-2.8-2.6-7.2 0-10 .3-.3.6-.5 1-.5s.8.1 1 .4c.6.6.6 1.5.1 2.1-1.6 1.7-1.6 4.3 0 6 .6.6.5 1.5 0 2.1-.3.3-.7.4-1 .4z" fill="#fff"/><path d="m1338.3 1620.8h-36.6c-2.1 0-3.8 1.7-3.8 3.8v34.2l11.5-7.6h28.9c2.1 0 3.8-1.7 3.8-3.8v-22.8c0-2.1-1.7-3.8-3.8-3.8z" fill="#215a9c"/><path d="m1318.3 1628.1c.3.1.5.4.5.7v12.4c0 .3-.2.6-.5.7-.1 0-.2 0-.3 0-.2 0-.4-.1-.5-.2l-3.8-3.8h-3c-.4 0-.7-.3-.7-.7 0 0 0 0 0-.1v-4.4c0-.4.3-.7.7-.7h.1 3l3.8-3.8c.1-.1.4-.2.7-.1zm9.5 15.8c.4 0 .9-.2 1.1-.5 3.9-4.8 3.9-11.7 0-16.6-.2-.3-.6-.5-1-.5-.4-.1-.8.1-1.1.3s-.5.6-.5 1 .1.8.3 1.1c3 3.8 3 9.1 0 12.9-.3.3-.4.7-.3 1.1 0 .4.2.7.5 1 .3.1.6.2 1 .2zm-4.8-3.4c.4 0 .8-.2 1.1-.5 2.6-2.8 2.6-7.2 0-10-.3-.3-.6-.5-1-.5s-.8.1-1 .4c-.6.6-.6 1.5-.1 2.1 1.6 1.7 1.6 4.3 0 6-.6.6-.5 1.5 0 2.1.2.3.6.4 1 .4z" fill="#fff"/><path d="m1085.6 1898.2h36.6c2.1 0 3.8-1.8 3.8-3.9v-35.5l-12.3 7.9h-28.2c-2.1 0-3.8 1.8-3.8 3.9v23.7c.1 2.1 1.8 3.8 3.9 3.9z" fill="#215a9c"/><path d="m1105.7 1890.8c-.3-.1-.5-.4-.5-.7v-12.4c0-.3.2-.6.5-.7h.3c.2 0 .4.1.5.2l3.8 3.8h3c.4 0 .7.3.7.7v.1 4.4c0 .4-.3.7-.7.7 0 0 0 0-.1 0h-3l-3.8 3.8c-.1.2-.4.2-.7.1zm-9.5-15.7c-.4 0-.9.2-1.1.5-3.9 4.8-3.9 11.7 0 16.6.2.3.6.5 1 .5.4.1.8-.1 1.1-.3s.5-.6.5-1-.1-.8-.3-1.1c-3-3.8-3-9.1 0-12.9.3-.3.4-.7.3-1.1 0-.4-.2-.7-.5-1-.4-.1-.7-.2-1-.2zm4.8 3.4c-.4 0-.8.2-1.1.5-2.6 2.8-2.6 7.2 0 10 .3.3.6.5 1 .5s.8-.1 1-.4c.6-.6.6-1.5.1-2.1-1.6-1.7-1.6-4.3 0-6 .6-.6.5-1.5 0-2.1-.3-.3-.6-.4-1-.4z" fill="#fff"/></g></svg>