<svg width="95" height="95" viewBox="0 0 95 95" xmlns="http://www.w3.org/2000/svg">
  <defs>
    <linearGradient id="linear-gradient" x1="0.5" x2="0.5" y2="1.257" gradientUnits="objectBoundingBox">
      <stop offset="0" stop-color="#d0e0f0"></stop>
      <stop offset="1" stop-color="#fff"></stop>
    </linearGradient>
  </defs>
  <circle id="Ellipse_38" data-name="Ellipse 38" cx="47.5" cy="47.5" r="47.5" fill="url(#linear-gradient)"></circle>
  <path id="Path_111" data-name="Path 111" d="M 55.537 45.588 C 64.77 45.583 70.536 35.585 65.915 27.592 C 61.294 19.598 49.753 19.604 45.141 27.603 C 43.007 31.303 43.002 35.859 45.128 39.564 L 38.614 43.903 C 33.622 38.455 24.603 40.454 22.381 47.502 C 20.159 54.55 26.399 61.361 33.614 59.761 C 35.825 59.271 37.792 58.015 39.166 56.215 L 48.495 60.878 C 47.333 66.297 52.473 70.943 57.747 69.24 C 63.022 67.537 64.475 60.763 60.363 57.046 C 59.04 55.851 57.32 55.189 55.537 55.188 C 53.454 55.186 51.473 56.088 50.106 57.66 L 40.78 52.997 C 41.337 51.01 41.242 48.896 40.509 46.966 L 47.379 42.388 C 49.596 44.449 52.511 45.592 55.537 45.588 Z M 55.537 41.988 C 49.071 41.988 45.03 34.988 48.263 29.388 C 51.496 23.788 59.579 23.788 62.812 29.388 C 63.549 30.665 63.937 32.114 63.937 33.588 C 63.937 38.227 60.177 41.988 55.537 41.988 Z M 31.537 56.388 C 26.919 56.388 24.032 51.388 26.341 47.388 C 28.651 43.388 34.424 43.388 36.733 47.388 C 37.26 48.3 37.537 49.335 37.537 50.388 C 37.537 53.702 34.851 56.388 31.537 56.388 L 31.537 56.388 Z M 59.137 62.388 C 59.137 65.159 56.137 66.891 53.737 65.506 C 51.337 64.12 51.337 60.656 53.737 59.27 C 54.285 58.954 54.905 58.788 55.537 58.788 C 57.526 58.788 59.137 60.4 59.137 62.388 Z" fill="#215a9c"></path>
</svg>
