<svg width="95" height="95" viewBox="0 0 95 95" xmlns="http://www.w3.org/2000/svg">
  <defs>
    <linearGradient id="linear-gradient" x1="0.5" x2="0.5" y2="1.257" gradientUnits="objectBoundingBox">
      <stop offset="0" stop-color="#d0e0f0"></stop>
      <stop offset="1" stop-color="#fff"></stop>
    </linearGradient>
  </defs>
  <circle id="Ellipse_38" data-name="Ellipse 38" cx="47.5" cy="47.5" r="47.5" fill="url(#linear-gradient)"></circle>
  <path id="Icon_awesome-people-carry" data-name="Icon awesome-people-carry" d="M 33.811 36.711 C 36.512 36.711 38.201 33.787 36.85 31.448 C 35.499 29.109 32.123 29.109 30.772 31.448 C 30.464 31.982 30.302 32.587 30.302 33.203 C 30.303 35.141 31.874 36.711 33.811 36.711 Z M 61.881 36.711 C 64.582 36.711 66.271 33.787 64.92 31.448 C 63.569 29.109 60.193 29.109 58.842 31.448 C 58.534 31.981 58.372 32.586 58.372 33.202 C 58.373 35.14 59.943 36.71 61.88 36.711 L 61.881 36.711 Z M 71.069 63.911 L 67.854 55.87 L 64.854 59.262 L 64.708 60.592 L 66.733 65.65 C 67.088 66.538 67.948 67.12 68.904 67.119 C 69.202 67.121 69.498 67.064 69.774 66.951 C 70.97 66.468 71.549 65.108 71.068 63.911 L 71.069 63.911 Z M 68.569 48.575 L 67.217 42.713 C 66.877 41.246 65.86 40.027 64.476 39.431 C 63.15 38.849 61.625 38.938 60.376 39.672 C 58.719 40.65 57.468 42.191 56.854 44.014 L 56.032 46.494 L 54.862 47.24 L 54.862 40.22 C 54.861 39.575 54.338 39.052 53.692 39.05 L 41.992 39.05 C 41.347 39.052 40.824 39.575 40.822 40.22 L 40.822 47.237 L 39.654 46.494 L 38.828 44.016 C 38.22 42.191 36.971 40.649 35.312 39.674 C 34.063 38.941 32.538 38.851 31.212 39.433 C 29.829 40.029 28.811 41.248 28.471 42.715 L 27.122 48.575 C 26.785 50.046 27.177 51.589 28.175 52.72 L 33.087 58.268 L 33.825 65.037 C 33.957 66.224 34.96 67.121 36.154 67.12 C 36.242 67.12 36.322 67.113 36.41 67.105 C 37.695 66.966 38.622 65.81 38.479 64.525 L 37.741 57.742 C 37.632 56.793 37.234 55.9 36.601 55.184 L 33.43 51.601 L 34.717 46.462 L 35.217 47.953 C 35.542 48.92 36.17 49.756 37.008 50.336 L 40.743 52.712 C 41.132 52.922 41.56 53.046 42 53.077 L 53.7 53.077 C 54.14 53.046 54.569 52.922 54.957 52.712 L 58.692 50.336 C 59.532 49.757 60.161 48.921 60.483 47.953 L 60.983 46.462 L 62.27 51.601 L 59.105 55.183 C 58.473 55.899 58.075 56.792 57.965 57.741 L 57.227 64.524 C 57.087 65.808 58.013 66.962 59.296 67.104 C 59.384 67.111 59.464 67.119 59.552 67.119 C 60.745 67.119 61.746 66.222 61.877 65.036 L 62.615 58.267 L 67.527 52.719 C 68.523 51.587 68.915 50.045 68.58 48.574 L 68.569 48.575 Z M 27.839 55.875 L 24.622 63.911 C 23.932 65.575 25.302 67.361 27.087 67.126 C 27.936 67.015 28.655 66.449 28.964 65.651 L 30.989 60.594 L 30.843 59.264 L 27.843 55.872 L 27.839 55.875 Z" fill="#215a9c"></path>
</svg>
