<svg xmlns="http://www.w3.org/2000/svg" width="95" height="95" viewBox="0 0 95 95">
  <g id="Group_217" data-name="Group 217" transform="translate(-1108 -3669)">
    <circle id="Ellipse_39" data-name="Ellipse 39" cx="47.5" cy="47.5" r="47.5" transform="translate(1108 3669)" fill="#215a9c"/>
    <path id="Icon_awesome-people-carry" data-name="Icon awesome-people-carry" d="M9.357,7.017A3.509,3.509,0,1,0,5.848,3.509,3.51,3.51,0,0,0,9.357,7.017Zm28.07,0a3.509,3.509,0,1,0-3.509-3.509A3.51,3.51,0,0,0,37.426,7.017Zm9.188,27.2L43.4,26.176l-3,3.392-.146,1.33,2.025,5.058a2.337,2.337,0,0,0,2.171,1.469,2.273,2.273,0,0,0,.87-.168A2.338,2.338,0,0,0,46.614,34.217Zm-2.5-15.336-1.352-5.862a4.737,4.737,0,0,0-2.741-3.282,4.51,4.51,0,0,0-4.1.241A8.009,8.009,0,0,0,32.4,14.32L31.578,16.8l-1.17.746V10.526a1.173,1.173,0,0,0-1.17-1.17h-11.7a1.173,1.173,0,0,0-1.17,1.17v7.017L15.2,16.8l-.826-2.478a7.951,7.951,0,0,0-3.516-4.342,4.512,4.512,0,0,0-4.1-.241,4.737,4.737,0,0,0-2.741,3.282L2.668,18.881a4.683,4.683,0,0,0,1.053,4.145l4.912,5.548.738,6.769A2.341,2.341,0,0,0,11.7,37.426c.088,0,.168-.007.256-.015a2.335,2.335,0,0,0,2.069-2.58l-.738-6.783a4.672,4.672,0,0,0-1.14-2.558L8.976,21.907l1.287-5.139.5,1.491a4.728,4.728,0,0,0,1.791,2.383l3.735,2.376a3.112,3.112,0,0,0,1.257.365h11.7a3.112,3.112,0,0,0,1.257-.365l3.735-2.376a4.7,4.7,0,0,0,1.791-2.383l.5-1.491,1.287,5.139-3.165,3.582a4.672,4.672,0,0,0-1.14,2.558l-.738,6.783a2.341,2.341,0,0,0,2.069,2.58c.088.007.168.015.256.015a2.34,2.34,0,0,0,2.325-2.083l.738-6.769,4.912-5.548a4.7,4.7,0,0,0,1.053-4.145Zm-40.73,7.3L.168,34.217a2.339,2.339,0,1,0,4.342,1.74L6.535,30.9l-.146-1.33-3-3.392Z" transform="translate(1131.609 3697.354)" fill="#fff"/>
  </g>
</svg>
